<svg width="30" height="30" viewBox="0 0 30 30" fill="none" xmlns="http://www.w3.org/2000/svg">
<g clip-path="url(#clip0_2_127)">
<path opacity="0.1" d="M15 30C23.2842 30 30 23.2842 30 15C30 6.71573 23.2842 0 15 0C6.71573 0 0 6.71573 0 15C0 23.2842 6.71573 30 15 30Z" fill="#FF2A2A"/>
<path d="M10.9093 7.91435C6.99599 10.1737 5.65519 15.1775 7.91453 19.0909C10.1739 23.0043 15.1778 24.345 19.0911 22.0857C23.0044 19.8263 24.3452 14.8225 22.0859 10.9091C19.8265 6.99579 14.8226 5.65499 10.9093 7.91435Z" fill="#FF2A2A"/>
<path fill-rule="evenodd" clip-rule="evenodd" d="M20.4096 16.564C20.5062 16.4275 20.4809 16.2288 20.3551 16.1386C20.3249 16.117 19.3296 15.7287 18.1432 15.2759C16.957 14.823 15.9824 14.4457 15.9776 14.4374C15.9728 14.429 16.1333 13.3965 16.3343 12.1426C16.5352 10.8888 16.6966 9.83267 16.693 9.79568C16.671 9.57323 16.3762 9.45596 16.1858 9.59397C16.1076 9.65067 10.321 17.3378 10.2699 17.4529C10.1888 17.6355 10.2764 17.815 10.4718 17.8672C10.5798 17.896 20.1655 16.7306 20.2799 16.6747C20.3355 16.6475 20.3729 16.6155 20.4096 16.564Z" fill="white"/>
</g>
<defs>
<clipPath id="clip0_2_127">
<rect width="30" height="30" fill="white"/>
</clipPath>
</defs>
</svg>
