<svg width="10" height="10" viewBox="0 0 10 10" fill="none" xmlns="http://www.w3.org/2000/svg">
<path fill-rule="evenodd" clip-rule="evenodd" d="M5.50307 9.50266C7.76832 9.25239 9.53027 7.33196 9.53027 5C9.53027 2.498 7.502 0.469727 5 0.469727C2.498 0.469727 0.469727 2.498 0.469727 5C0.469727 7.502 2.498 9.53027 5 9.53027C5.05608 9.53027 5.11191 9.52925 5.16749 9.52723V1.47643H5.1682V0.961013C6.19281 1.08328 6.9872 1.95527 6.9872 3.01279C6.9872 3.95185 6.36081 4.74461 5.50307 4.99605V9.50266ZM4.85029 0.947529C3.74165 0.984679 2.85431 1.89511 2.85431 3.01279C2.85431 4.13047 3.74165 5.0409 4.85029 5.07805V0.947529Z" fill="white"/>
</svg>
