<svg width="31" height="32" viewBox="0 0 31 32" fill="none" xmlns="http://www.w3.org/2000/svg">
<circle opacity="0.12" cx="15.0263" cy="15.9999" r="11" transform="rotate(30 15.0263 15.9999)" fill="black"/>
<path fill-rule="evenodd" clip-rule="evenodd" d="M10.0462 12.9693C9.90689 13.0848 9.87551 13.311 9.97903 13.4535C10.0039 13.4878 10.9176 14.2597 12.0096 15.169C13.1014 16.0782 13.9969 16.8309 13.9994 16.8416C14.002 16.8524 13.5372 17.9259 12.9667 19.2272C12.3962 20.5286 11.9237 21.6275 11.9167 21.6692C11.8749 21.9202 12.145 22.1514 12.3813 22.0668C12.4783 22.0321 20.672 15.6426 20.7581 15.5345C20.8945 15.3631 20.8562 15.1362 20.6698 15.0109C20.5669 14.9418 10.3461 12.8722 10.212 12.8934C10.1468 12.9037 10.0989 12.9256 10.0462 12.9693Z" fill="black"/>
</svg>
