<svg width="30" height="30" viewBox="0 0 30 30" fill="none" xmlns="http://www.w3.org/2000/svg">
<g clip-path="url(#clip0_2_95)">
<path opacity="0.1" d="M15 30C23.2842 30 30 23.2842 30 15C30 6.71573 23.2842 0 15 0C6.71573 0 0 6.71573 0 15C0 23.2842 6.71573 30 15 30Z" fill="#0D99FF"/>
<path d="M10.9089 22.0857C14.8222 24.345 19.8262 23.0043 22.0855 19.0909C24.3449 15.1775 23.004 10.1737 19.0908 7.91434C15.1774 5.65498 10.1735 6.99578 7.91417 10.9091C5.65483 14.8225 6.99562 19.8263 10.9089 22.0857Z" fill="#0D99FF"/>
<path fill-rule="evenodd" clip-rule="evenodd" d="M13.6493 9.53391C13.4827 9.51836 13.3233 9.63971 13.3081 9.79368C13.3045 9.83067 13.4659 10.8868 13.6669 12.1406C13.8679 13.3945 14.0284 14.4271 14.0236 14.4353C14.0189 14.4436 13.0443 14.821 11.8579 15.2738C10.6716 15.7267 9.67625 16.1149 9.64604 16.1366C9.46437 16.2668 9.51025 16.5809 9.72497 16.6767C9.81318 16.7161 19.3638 17.884 19.4891 17.8706C19.6876 17.8496 19.7993 17.6839 19.7468 17.4886C19.7178 17.3808 13.9155 9.66194 13.8101 9.59082C13.7587 9.55624 13.7123 9.5398 13.6493 9.53391Z" fill="white"/>
</g>
<defs>
<clipPath id="clip0_2_95">
<rect width="30" height="30" fill="white"/>
</clipPath>
</defs>
</svg>
