<svg width="30" height="30" viewBox="0 0 30 30" fill="none" xmlns="http://www.w3.org/2000/svg">
<g clip-path="url(#clip0_2_87)">
<path opacity="0.1" d="M15 30C23.2842 30 30 23.2842 30 15C30 6.71573 23.2842 0 15 0C6.71573 0 0 6.71573 0 15C0 23.2842 6.71573 30 15 30Z" fill="#0D99FF"/>
<path d="M6.81818 15C6.81818 19.5187 10.4813 23.1818 15 23.1818C19.5187 23.1818 23.1818 19.5187 23.1818 15C23.1818 10.4813 19.5187 6.81818 15 6.81818C10.4813 6.81818 6.81818 10.4813 6.81818 15Z" fill="#0D99FF"/>
<path fill-rule="evenodd" clip-rule="evenodd" d="M19.0588 11.0979C18.9889 10.9458 18.8041 10.8685 18.6632 10.9323C18.6294 10.9476 17.7954 11.6155 16.8101 12.4165C15.8247 13.2174 15.0107 13.8728 15.0012 13.8728C14.9915 13.8728 14.1776 13.2174 13.1922 12.4165C12.2068 11.6155 11.3729 10.9476 11.339 10.9323C11.1354 10.8401 10.8864 11.0368 10.9107 11.2707C10.9207 11.3668 14.6847 20.2218 14.7589 20.3236C14.8764 20.485 15.0757 20.499 15.2186 20.3558C15.2975 20.2767 19.0811 11.3925 19.0899 11.2655C19.0942 11.2038 19.0852 11.1553 19.0588 11.0979Z" fill="white"/>
</g>
<defs>
<clipPath id="clip0_2_87">
<rect width="30" height="30" fill="white"/>
</clipPath>
</defs>
</svg>
