<svg width="40" height="41" viewBox="0 0 40 41" fill="none" xmlns="http://www.w3.org/2000/svg">
<path d="M13.7035 19.2543H3.70349C3.04045 19.2543 2.40457 18.9909 1.93573 18.5221C1.46688 18.0532 1.20349 17.4173 1.20349 16.7543C1.20349 16.0912 1.46688 15.4554 1.93573 14.9865C2.40457 14.5177 3.04045 14.2543 3.70349 14.2543H4.53682C4.53682 13.3702 4.88801 12.5224 5.51314 11.8973C6.13826 11.2721 6.9861 10.921 7.87016 10.921H27.8701C28.3935 10.9214 28.9109 10.8097 29.3875 10.5935C29.8642 10.3774 30.289 10.0616 30.6335 9.66762L34.8718 4.82262C35.0282 4.64411 35.2209 4.50106 35.4371 4.40305C35.6532 4.30504 35.8878 4.25432 36.1251 4.25428H37.1251C37.3949 4.2533 37.6609 4.31784 37.9003 4.44234C38.1396 4.56684 38.3452 4.74758 38.4993 4.96905C38.6534 5.19051 38.7514 5.44607 38.7849 5.71377C38.8185 5.98148 38.7865 6.25332 38.6918 6.50595L37.0351 10.921C37.6218 11.238 38.0965 11.7281 38.3947 12.3245C38.6929 12.9209 38.8002 13.5947 38.7018 14.2543V14.2826C38.7018 16.6376 32.6668 19.2543 28.0268 19.2543H27.0351" stroke="#4285F5" stroke-width="1.5" stroke-linecap="round" stroke-linejoin="round"/>
<path d="M4.53479 14.2543H7.86812" stroke="#4285F5" stroke-width="1.5" stroke-linecap="round" stroke-linejoin="round"/>
<path d="M27.0352 19.2542C27.0352 19.6963 26.8596 20.1202 26.547 20.4328C26.2344 20.7453 25.8105 20.9209 25.3685 20.9209H15.3685C14.9265 20.9209 14.5025 20.7453 14.19 20.4328C13.8774 20.1202 13.7018 19.6963 13.7018 19.2542C13.7019 18.837 13.7907 18.4245 13.9624 18.0441C14.134 17.6638 14.3846 17.3243 14.6975 17.0481C15.0103 16.772 15.3783 16.5655 15.777 16.4425C16.1758 16.3194 16.5961 16.2825 17.0102 16.3342L25.3818 17.3809C25.8383 17.4382 26.2582 17.6601 26.5626 18.005C26.867 18.35 27.0351 18.7942 27.0352 19.2542Z" stroke="#4285F5" stroke-width="1.5" stroke-linecap="round" stroke-linejoin="round"/>
<path d="M29.5352 14.2543V15.9209" stroke="#4285F5" stroke-width="1.5" stroke-linecap="round" stroke-linejoin="round"/>
<path d="M11.2017 14.2543V15.9209" stroke="#4285F5" stroke-width="1.5" stroke-linecap="round" stroke-linejoin="round"/>
<path d="M7.86829 34.6709C7.86829 33.2344 8.43897 31.8566 9.45479 30.8408C10.4707 29.825 11.8484 29.2543 13.285 29.2543C14.7216 29.2543 16.0993 29.825 17.1152 30.8408C18.131 31.8566 18.7017 33.2344 18.7017 34.6709" stroke="#4285F5" stroke-width="1.5" stroke-linecap="round" stroke-linejoin="round"/>
<path d="M7.86849 34.2542C6.98444 34.2542 6.13659 34.6054 5.51147 35.2305C4.88635 35.8556 4.53516 36.7035 4.53516 37.5875H24.5352C24.5352 36.2614 24.0084 34.9897 23.0707 34.052C22.133 33.1143 20.8612 32.5875 19.5352 32.5875C19.138 32.59 18.7485 32.6963 18.4052 32.8959" stroke="#4285F5" stroke-width="1.5" stroke-linecap="round" stroke-linejoin="round"/>
</svg>
