<svg width="25" height="25" viewBox="0 0 25 25" fill="none" xmlns="http://www.w3.org/2000/svg">
<g clip-path="url(#clip0_10_350)">
<path d="M9.5 8.20691H5.667C5.448 8.20691 5.23115 8.25006 5.02884 8.3339C4.82652 8.41773 4.64271 8.54061 4.4879 8.69552C4.33309 8.85042 4.21032 9.0343 4.12661 9.23667C4.04289 9.43903 3.99987 9.65591 4 9.87491V21.2069" stroke="white" stroke-linecap="round" stroke-linejoin="round"/>
<path d="M21 21.2079V14.7079" stroke="white" stroke-linecap="round" stroke-linejoin="round"/>
<path d="M24 21.2069C24 22.0026 23.6839 22.7656 23.1213 23.3282C22.5587 23.8908 21.7956 24.2069 21 24.2069H4C3.20435 24.2069 2.44129 23.8908 1.87868 23.3282C1.31607 22.7656 1 22.0026 1 21.2069H24Z" stroke="white" stroke-linecap="round" stroke-linejoin="round"/>
<path d="M17.933 1.20691C17.1433 1.20955 16.362 1.36928 15.6346 1.67678C14.9072 1.98428 14.2482 2.43341 13.6961 2.99804C13.1439 3.56266 12.7096 4.23148 12.4184 4.96556C12.1272 5.69965 11.985 6.48433 12 7.27391C11.955 8.3905 12.2257 9.49715 12.781 10.4669L11 14.2069L14.741 12.4249C15.5385 12.9193 16.4398 13.2219 17.3741 13.3088C18.3083 13.3958 19.25 13.2647 20.1251 12.926C21.0001 12.5873 21.7846 12.0502 22.4168 11.3569C23.049 10.6635 23.5117 9.83297 23.7685 8.9305C24.0253 8.02803 24.0692 7.07828 23.8967 6.15598C23.7242 5.23368 23.34 4.36399 22.7743 3.61535C22.2087 2.86672 21.4771 2.25955 20.637 1.84163C19.7969 1.42371 18.8713 1.20644 17.933 1.20691Z" stroke="#4285F5" stroke-linecap="round" stroke-linejoin="round"/>
<path d="M18 9.20691C18.0494 9.20691 18.0978 9.22157 18.1389 9.24904C18.18 9.27651 18.212 9.31556 18.231 9.36124C18.2499 9.40692 18.2548 9.45719 18.2452 9.50568C18.2355 9.55418 18.2117 9.59872 18.1768 9.63369C18.1418 9.66865 18.0973 9.69246 18.0488 9.70211C18.0003 9.71175 17.95 9.7068 17.9043 9.68788C17.8586 9.66896 17.8196 9.63691 17.7921 9.5958C17.7647 9.55469 17.75 9.50635 17.75 9.45691C17.75 9.39061 17.7763 9.32702 17.8232 9.28013C17.8701 9.23325 17.9337 9.20691 18 9.20691Z" fill="#4285F5" stroke="#4285F5" stroke-linecap="round" stroke-linejoin="round"/>
<path d="M18 7.70789V4.70789" stroke="#4285F5" stroke-linecap="round" stroke-linejoin="round"/>
</g>
<defs>
<clipPath id="clip0_10_350">
<rect width="25" height="25" fill="white"/>
</clipPath>
</defs>
</svg>
