<svg width="40" height="41" viewBox="0 0 40 41" fill="none" xmlns="http://www.w3.org/2000/svg">
<path d="M5.60013 32.1676C4.21365 31.0694 3.07601 29.6896 2.26236 28.1192C1.44871 26.5488 0.97759 24.8236 0.880127 23.0576C0.872826 22.9437 0.888974 22.8296 0.927572 22.7223C0.966169 22.6149 1.02639 22.5166 1.10452 22.4335C1.18264 22.3504 1.27699 22.2842 1.38174 22.239C1.48648 22.1939 1.59939 22.1707 1.71346 22.1709H10.8518C13.1535 22.1709 15.0185 23.2026 15.0185 25.5126H38.3135C38.4295 25.5121 38.5444 25.5359 38.6507 25.5824C38.757 25.6288 38.8525 25.697 38.9309 25.7825C39.0094 25.868 39.0691 25.969 39.1063 26.0789C39.1434 26.1888 39.1572 26.3053 39.1468 26.4209C38.9549 28.5331 38.0936 30.5289 36.6885 32.1176" stroke="#4285F5" stroke-width="1.5" stroke-linecap="round" stroke-linejoin="round"/>
<path d="M10.8516 22.1709V13.0042C10.8516 12.7832 10.9394 12.5713 11.0956 12.415C11.2519 12.2587 11.4639 12.1709 11.6849 12.1709H19.1849C21.4866 12.1709 23.3516 14.8692 23.3516 17.1709H34.1849V25.5042" stroke="#4285F5" stroke-width="1.5" stroke-linecap="round" stroke-linejoin="round"/>
<path d="M14.1851 12.1709V6.33761C14.1851 6.11659 14.2729 5.90463 14.4291 5.74835C14.5854 5.59207 14.7974 5.50427 15.0184 5.50427H21.6851C21.9061 5.50427 22.118 5.59207 22.2743 5.74835C22.4306 5.90463 22.5184 6.11659 22.5184 6.33761V14.3693" stroke="#4285F5" stroke-width="1.5" stroke-linecap="round" stroke-linejoin="round"/>
<path d="M14.1851 8.83752H22.5184" stroke="#4285F5" stroke-width="1.5" stroke-linecap="round" stroke-linejoin="round"/>
<path d="M34.1851 17.1709H35.8517" stroke="#4285F5" stroke-width="1.5" stroke-linecap="round" stroke-linejoin="round"/>
<path d="M10.8516 18.8376H17.5182V15.5043H10.8516" stroke="#4285F5" stroke-width="1.5" stroke-linecap="round" stroke-linejoin="round"/>
<path d="M25.8516 17.1709V20.5042H34.1849" stroke="#4285F5" stroke-width="1.5" stroke-linecap="round" stroke-linejoin="round"/>
<path d="M30.8516 20.5125V17.1792" stroke="#4285F5" stroke-width="1.5" stroke-linecap="round" stroke-linejoin="round"/>
<path d="M2.67188 28.8459H38.6135" stroke="#4285F5" stroke-width="1.5" stroke-linecap="round" stroke-linejoin="round"/>
<path d="M39.1668 36.7342C39.0302 36.7476 38.8902 36.7542 38.7502 36.7542C37.9995 36.7549 37.261 36.5638 36.6048 36.1993C35.9485 35.8347 35.3962 35.3086 35.0002 34.6709C34.6036 35.3082 34.0512 35.8339 33.3951 36.1984C32.739 36.5629 32.0008 36.7542 31.2502 36.7542C30.4996 36.7542 29.7614 36.5629 29.1052 36.1984C28.4491 35.8339 27.8967 35.3082 27.5002 34.6709C27.1036 35.3082 26.5512 35.8339 25.8951 36.1984C25.239 36.5629 24.5008 36.7542 23.7502 36.7542C22.9996 36.7542 22.2614 36.5629 21.6052 36.1984C20.9491 35.8339 20.3967 35.3082 20.0002 34.6709C19.6036 35.3082 19.0512 35.8339 18.3951 36.1984C17.739 36.5629 17.0008 36.7542 16.2502 36.7542C15.4996 36.7542 14.7614 36.5629 14.1052 36.1984C13.4491 35.8339 12.8967 35.3082 12.5002 34.6709C12.1036 35.3082 11.5512 35.8339 10.8951 36.1984C10.239 36.5629 9.50075 36.7542 8.75016 36.7542C7.99958 36.7542 7.26137 36.5629 6.60524 36.1984C5.94911 35.8339 5.3967 35.3082 5.00016 34.6709C4.6041 35.3086 4.05179 35.8347 3.39555 36.1993C2.73931 36.5638 2.00087 36.7549 1.25016 36.7542C1.11016 36.7542 0.970163 36.7542 0.833496 36.7342" stroke="#4285F5" stroke-width="1.5" stroke-linecap="round" stroke-linejoin="round"/>
</svg>
