<svg width="30" height="30" viewBox="0 0 30 30" fill="none" xmlns="http://www.w3.org/2000/svg">
<g clip-path="url(#clip0_1_7)">
<path opacity="0.1" d="M15 30C23.2842 30 30 23.2842 30 15C30 6.71573 23.2842 0 15 0C6.71573 0 0 6.71573 0 15C0 23.2842 6.71573 30 15 30Z" fill="black"/>
<path d="M19.0908 22.0857C23.004 19.8263 24.3449 14.8225 22.0855 10.9091C19.8262 6.9958 14.8222 5.65499 10.9089 7.91434C6.99562 10.1737 5.65483 15.1775 7.91417 19.0909C10.1735 23.0043 15.1774 24.345 19.0908 22.0857Z" fill="black"/>
<path fill-rule="evenodd" clip-rule="evenodd" d="M9.59053 13.436C9.49376 13.5725 9.51918 13.7712 9.64492 13.8614C9.67513 13.883 10.6705 14.2713 11.8568 14.7241C13.0431 15.177 14.0177 15.5543 14.0224 15.5626C14.0272 15.571 13.8667 16.6035 13.6657 17.8574C13.4648 19.1112 13.3034 20.1674 13.307 20.2043C13.329 20.4267 13.6239 20.544 13.8142 20.406C13.8925 20.3493 19.6791 12.6621 19.7302 12.547C19.8112 12.3645 19.7237 12.185 19.5283 12.1328C19.4203 12.104 9.83454 13.2695 9.72018 13.3253C9.66459 13.3524 9.62711 13.3844 9.59053 13.436Z" fill="white"/>
</g>
<defs>
<clipPath id="clip0_1_7">
<rect width="30" height="30" fill="white"/>
</clipPath>
</defs>
</svg>
