<svg width="30" height="30" viewBox="0 0 30 30" fill="none" xmlns="http://www.w3.org/2000/svg">
<g clip-path="url(#clip0_2_63)">
<path opacity="0.1" d="M15 30C23.2842 30 30 23.2842 30 15C30 6.71573 23.2842 0 15 0C6.71573 0 0 6.71573 0 15C0 23.2842 6.71573 30 15 30Z" fill="#0D99FF"/>
<path d="M23.1818 15C23.1818 10.4813 19.5187 6.81818 15 6.81818C10.4813 6.81818 6.81818 10.4813 6.81818 15C6.81818 19.5187 10.4813 23.1818 15 23.1818C19.5187 23.1818 23.1818 19.5187 23.1818 15Z" fill="#0D99FF"/>
<path fill-rule="evenodd" clip-rule="evenodd" d="M10.9412 18.9022C11.0111 19.0542 11.1958 19.1315 11.3368 19.0677C11.3706 19.0523 12.2045 18.3845 13.1899 17.5835C14.1753 16.7825 14.9893 16.1272 14.9988 16.1272C15.0085 16.1272 15.8224 16.7825 16.8078 17.5835C17.7932 18.3845 18.6272 19.0523 18.661 19.0677C18.8646 19.1599 19.1136 18.9631 19.0893 18.7293C19.0793 18.6331 15.3153 9.77824 15.2411 9.67643C15.1236 9.51501 14.9243 9.50106 14.7814 9.64425C14.7025 9.7233 10.919 18.6075 10.9101 18.7345C10.9059 18.7962 10.9148 18.8446 10.9412 18.9022Z" fill="white"/>
</g>
<defs>
<clipPath id="clip0_2_63">
<rect width="30" height="30" fill="white"/>
</clipPath>
</defs>
</svg>
