<svg width="30" height="30" viewBox="0 0 30 30" fill="none" xmlns="http://www.w3.org/2000/svg">
<g clip-path="url(#clip0_2_75)">
<path opacity="0.1" d="M15 30C23.2842 30 30 23.2842 30 15C30 6.71573 23.2842 0 15 0C6.71573 0 0 6.71573 0 15C0 23.2842 6.71573 30 15 30Z" fill="#0D99FF"/>
<path d="M15 6.81818C10.4813 6.81818 6.81818 10.4813 6.81818 15C6.81818 19.5187 10.4813 23.1818 15 23.1818C19.5187 23.1818 23.1818 19.5187 23.1818 15C23.1818 10.4813 19.5187 6.81818 15 6.81818Z" fill="#0D99FF"/>
<path fill-rule="evenodd" clip-rule="evenodd" d="M18.9022 19.0589C19.0542 18.9889 19.1316 18.8041 19.0677 18.6633C19.0523 18.6295 18.3846 17.7955 17.5836 16.8101C16.7826 15.8247 16.1272 15.0108 16.1272 15.0012C16.1272 14.9915 16.7826 14.1776 17.5836 13.1922C18.3846 12.2068 19.0523 11.3729 19.0677 11.3391C19.1599 11.1354 18.9632 10.8864 18.7293 10.9107C18.6332 10.9207 9.77826 14.6847 9.67645 14.7589C9.51502 14.8765 9.50107 15.0757 9.64427 15.2186C9.72332 15.2975 18.6075 19.0811 18.7345 19.09C18.7962 19.0942 18.8447 19.0852 18.9022 19.0589Z" fill="white"/>
</g>
<defs>
<clipPath id="clip0_2_75">
<rect width="30" height="30" fill="white"/>
</clipPath>
</defs>
</svg>
