<svg width="30" height="30" viewBox="0 0 30 30" fill="none" xmlns="http://www.w3.org/2000/svg">
<g clip-path="url(#clip0_2_51)">
<path opacity="0.1" d="M15 30C23.2842 30 30 23.2842 30 15C30 6.71573 23.2842 0 15 0C6.71573 0 0 6.71573 0 15C0 23.2842 6.71573 30 15 30Z" fill="#0D99FF"/>
<path d="M15 23.1818C19.5187 23.1818 23.1818 19.5187 23.1818 15C23.1818 10.4813 19.5187 6.81818 15 6.81818C10.4813 6.81818 6.81818 10.4813 6.81818 15C6.81818 19.5187 10.4813 23.1818 15 23.1818Z" fill="#0D99FF"/>
<path fill-rule="evenodd" clip-rule="evenodd" d="M11.0979 10.9412C10.9459 11.011 10.8685 11.1958 10.9323 11.3367C10.9477 11.3706 11.6155 12.2045 12.4165 13.1899C13.2175 14.1753 13.8728 14.9892 13.8728 14.9988C13.8728 15.0084 13.2175 15.8224 12.4165 16.8078C11.6155 17.7931 10.9477 18.6271 10.9323 18.6609C10.8401 18.8645 11.0369 19.1135 11.2708 19.0893C11.3668 19.0793 20.2218 15.3153 20.3237 15.2411C20.485 15.1235 20.499 14.9243 20.3558 14.7814C20.2768 14.7024 11.3925 10.9189 11.2656 10.9101C11.2038 10.9058 11.1554 10.9148 11.0979 10.9412Z" fill="white"/>
</g>
<defs>
<clipPath id="clip0_2_51">
<rect width="30" height="30" fill="white"/>
</clipPath>
</defs>
</svg>
