<svg width="30" height="30" viewBox="0 0 30 30" fill="none" xmlns="http://www.w3.org/2000/svg">
<g clip-path="url(#clip0_2_59)">
<path opacity="0.1" d="M15 30C23.2842 30 30 23.2842 30 15C30 6.71573 23.2842 0 15 0C6.71573 0 0 6.71573 0 15C0 23.2842 6.71573 30 15 30Z" fill="#0D99FF"/>
<path d="M22.0855 19.0909C24.3449 15.1776 23.004 10.1737 19.0908 7.91435C15.1774 5.65499 10.1735 6.99579 7.91417 10.9091C5.65483 14.8225 6.99562 19.8263 10.9089 22.0857C14.8222 24.345 19.8262 23.0043 22.0855 19.0909Z" fill="#0D99FF"/>
<path fill-rule="evenodd" clip-rule="evenodd" d="M9.53314 16.35C9.5176 16.5165 9.63895 16.6759 9.7929 16.691C9.8299 16.6947 10.886 16.5333 12.1399 16.3323C13.3937 16.1314 14.4263 15.9709 14.4346 15.9757C14.4429 15.9805 14.8201 16.9549 15.2731 18.1413C15.726 19.3276 16.1142 20.323 16.1359 20.3532C16.2661 20.5349 16.5802 20.489 16.676 20.2743C16.7154 20.186 17.8831 10.6355 17.8699 10.5102C17.8488 10.3117 17.6832 10.1999 17.4878 10.2525C17.3799 10.2815 9.66116 16.0837 9.59005 16.1892C9.55548 16.2405 9.53902 16.287 9.53314 16.35Z" fill="white"/>
</g>
<defs>
<clipPath id="clip0_2_59">
<rect width="30" height="30" fill="white"/>
</clipPath>
</defs>
</svg>
