<svg width="10" height="10" viewBox="0 0 10 10" fill="none" xmlns="http://www.w3.org/2000/svg">
<path d="M3.40466 4.24097H8.40922C8.79976 4.24097 9.11635 4.55756 9.11635 4.94809V8.54439C9.11635 8.93493 8.79976 9.25151 8.40922 9.25151H3.40466V4.24097Z" fill="#FBFBFB"/>
<path fill-rule="evenodd" clip-rule="evenodd" d="M3.41337 9.25178C3.41337 9.25178 5.93574 7.93501 5.93574 4.626C5.93574 4.36007 5.9183 4.10639 5.88631 3.86475L4.5163 4.18127L3.42184 5.8315L0.916123 4.0789C0.89971 4.25514 0.890991 4.43748 0.890991 4.626C0.890991 7.90081 3.41337 9.25178 3.41337 9.25178Z" fill="#C1C1C1"/>
<path d="M5.92534 4.62578C5.92534 6.2774 5.29592 7.43153 4.66663 8.17282C4.35194 8.54351 4.03726 8.81098 3.8013 8.98575C3.68332 9.07314 3.58504 9.13733 3.5163 9.17966C3.48193 9.20082 3.45494 9.21652 3.43657 9.22691L3.41564 9.23854L3.41343 9.23973L3.41119 9.2385L3.39025 9.22659C3.37188 9.21595 3.34489 9.19991 3.31052 9.17831C3.24177 9.13511 3.14348 9.06971 3.02549 8.98099C2.78952 8.80354 2.47483 8.53286 2.16013 8.16002C1.53079 7.41442 0.90139 6.26027 0.90139 4.62578C0.90139 3.02553 1.53076 1.87136 2.16016 1.11715C2.47489 0.740011 2.78961 0.462899 3.02561 0.280098C3.14361 0.188701 3.24191 0.120892 3.31067 0.0759559C3.34505 0.0534881 3.37205 0.0367392 3.39042 0.0256199L3.41137 0.0131523L3.41335 0.0120057L3.41534 0.0131635L3.43629 0.025701C3.45467 0.0368809 3.48166 0.0537175 3.51604 0.0762941C3.5848 0.121448 3.68311 0.189558 3.8011 0.281289C4.03711 0.464759 4.35184 0.742675 4.66656 1.12035C5.29597 1.87564 5.92534 3.02981 5.92534 4.62578Z" stroke="#D9D9D9" stroke-width="0.0207977"/>
<path fill-rule="evenodd" clip-rule="evenodd" d="M4.89599 1.39722C5.39749 2.08368 5.85079 3.03336 5.92521 4.26867L3.4134 6.78048L0.901733 4.26882C0.974445 3.05535 1.41102 2.11865 1.90035 1.43604L3.4134 2.34281L4.89599 1.39722Z" fill="#DCDCDC"/>
<path fill-rule="evenodd" clip-rule="evenodd" d="M1.64941 1.81836L1.65175 1.82122L3.41314 3.57406L5.17561 1.81949C4.4329 0.577198 3.4133 0 3.4133 0C3.4133 0 2.39226 0.574556 1.64941 1.81836Z" fill="#F3F3F3"/>
<g style="mix-blend-mode:hard-light" opacity="0.15">
<path fill-rule="evenodd" clip-rule="evenodd" d="M3.4048 0.00488281V9.24678C3.24463 9.15733 0.890991 7.7891 0.890991 4.62572C0.890991 1.52841 3.24463 0.0986014 3.4048 0.00488281Z" fill="black"/>
</g>
</svg>
