<svg width="147" height="44" viewBox="0 0 147 44" fill="none" xmlns="http://www.w3.org/2000/svg">
<path opacity="0.991" fill-rule="evenodd" clip-rule="evenodd" d="M7.80204 3.65231C8.08514 3.64381 8.34448 3.71584 8.58004 3.86842C8.60887 8.10423 8.63766 12.34 8.66649 16.5759C10.8533 15.5118 13.1585 15.0723 15.5821 15.2576C17.3531 15.4298 18.9524 16.0349 20.3798 17.0729C21.496 17.9581 22.238 19.0891 22.6058 20.4659C23.4414 24.9322 24.2771 29.3986 25.1127 33.8649C25.2375 34.4648 25.3959 35.0555 25.5881 35.637C25.8262 36.3795 26.3233 36.8334 27.0793 36.9985C27.4814 37.0446 27.8848 37.0734 28.2895 37.085C28.4461 37.1849 28.4605 37.3073 28.3328 37.4524C24.5741 37.5027 20.8138 37.5099 17.0517 37.474C16.8959 37.4163 16.8455 37.3083 16.9004 37.1498C16.9328 37.1227 16.9689 37.1011 17.0084 37.085C17.5202 37.1603 18.0101 37.0882 18.478 36.8689C18.8494 36.6095 19.0871 36.2565 19.1912 35.8099C19.3682 34.9907 19.3682 34.1695 19.1912 33.3462C18.4668 28.8949 17.7464 24.443 17.0301 19.9904C16.8488 18.8794 16.431 17.8709 15.7766 16.9649C15.1107 16.1602 14.2534 15.7856 13.2049 15.8411C11.5952 15.8743 10.4065 16.5946 9.639 18.0022C9.09789 19.0782 8.76651 20.2164 8.64488 21.4168C8.61605 25.4077 8.61605 29.3986 8.64488 33.3894C8.62923 34.3112 8.73007 35.2189 8.94743 36.1125C9.11216 36.6087 9.45072 36.904 9.96317 36.9985C10.365 37.0465 10.7684 37.0753 11.1734 37.085C11.3838 37.192 11.3982 37.3217 11.2166 37.474C7.75881 37.5028 4.30101 37.5028 0.843201 37.474C0.660919 37.3239 0.675325 37.1942 0.886424 37.085C1.28039 37.0822 1.66939 37.0389 2.05343 36.9553C2.50295 36.7794 2.7839 36.4552 2.89627 35.9828C2.98611 35.6133 3.04374 35.2387 3.06916 34.859C3.14033 26.4743 3.15474 18.0891 3.11239 9.70347C3.11517 9.05457 2.9855 8.43501 2.72338 7.8449C2.43938 7.44725 2.05038 7.27436 1.55637 7.32623C1.05915 7.37468 0.56209 7.41073 0.0651948 7.43428C0.0180205 7.34507 0.0108167 7.25141 0.0435835 7.15334C1.22511 6.84728 2.37051 6.43666 3.47978 5.92149C4.95592 5.21956 6.3967 4.46316 7.80204 3.65231Z" fill="black"/>
<path opacity="0.975" fill-rule="evenodd" clip-rule="evenodd" d="M33.1308 6.02955C35.0037 6.02955 36.8767 6.02955 38.7497 6.02955C39.5389 8.55565 40.3457 11.077 41.1702 13.5935C41.0813 13.6824 40.9804 13.7544 40.8676 13.8096C38.2928 11.2565 35.7211 8.69193 33.1524 6.11599C33.1323 6.09032 33.1251 6.06149 33.1308 6.02955Z" fill="black"/>
<path opacity="0.99" fill-rule="evenodd" clip-rule="evenodd" d="M58.2855 6.28889C61.0047 6.20119 63.4394 6.97919 65.5902 8.62291C65.4908 8.80154 65.3827 8.97443 65.266 9.14158C64.1366 8.51541 62.9264 8.16963 61.6353 8.10423C59.568 8.18394 58.2713 9.22128 57.7453 11.2163C57.5936 11.8774 57.5145 12.5474 57.5075 13.2261C57.543 13.8812 57.5577 14.5367 57.5508 15.1927C59.0636 15.1927 60.5763 15.1927 62.0891 15.1927C62.0891 15.38 62.0891 15.5673 62.0891 15.7546C60.5621 15.7546 59.0346 15.7546 57.5075 15.7546C57.5002 21.5465 57.5075 27.3383 57.5292 33.1301C57.5413 33.7649 57.5702 34.3988 57.6156 35.0319C57.6454 35.5699 57.7898 36.0742 58.0478 36.5447C58.3093 36.8304 58.6335 36.996 59.0203 37.0418C59.3955 37.0629 59.7702 37.0917 60.1441 37.1282C60.2535 37.24 60.2535 37.3552 60.1441 37.474C56.6721 37.5028 53.1995 37.5028 49.7275 37.474C49.5797 37.3737 49.5654 37.2584 49.6843 37.1282C50.0746 37.0937 50.4636 37.0505 50.8513 36.9985C51.2688 36.8977 51.5497 36.6456 51.6941 36.2421C51.8955 35.5807 51.9967 34.9036 51.9967 34.2107C52.0183 28.0587 52.0256 21.9067 52.0183 15.7546C50.9809 15.7546 49.9436 15.7546 48.9062 15.7546C48.9062 15.5673 48.9062 15.38 48.9062 15.1927C49.9579 15.1927 51.0099 15.1927 52.0615 15.1927C51.8705 13.4507 52.0939 11.765 52.7314 10.1357C53.6469 8.13911 55.1813 6.90727 57.3347 6.44016C57.658 6.39098 57.9752 6.34054 58.2855 6.28889Z" fill="black"/>
<path opacity="0.986" fill-rule="evenodd" clip-rule="evenodd" d="M74.1486 15.1063C74.898 15.1337 75.6471 15.1697 76.3961 15.2144C77.5013 15.3651 78.6109 15.4731 79.7243 15.5385C80.0592 15.531 80.3903 15.495 80.7184 15.4305C80.8995 15.3905 81.0434 15.2969 81.1506 15.1495C81.2176 15.1084 81.2894 15.094 81.3667 15.1063C81.3767 15.7146 81.4272 16.3197 81.518 16.9216C81.7181 18.309 81.9412 19.6922 82.188 21.071C82.0661 21.0891 81.9723 21.0459 81.907 20.9413C80.4634 18.9646 78.6411 17.4446 76.4394 16.3814C74.5479 15.5494 72.6314 15.4918 70.6907 16.2085C69.8358 16.5094 69.1806 17.0497 68.7241 17.8293C68.3239 18.7829 68.425 19.6762 69.0267 20.5091C69.6456 21.1611 70.3731 21.6581 71.2094 22.0003C72.9379 22.6629 74.6958 23.2392 76.4826 23.7292C77.8947 24.1544 79.2635 24.6875 80.5887 25.3284C81.6213 25.8558 82.5221 26.5545 83.2901 27.4247C84.503 29.092 84.7338 30.893 83.9817 32.8276C83.3995 34.0581 82.5277 35.0307 81.3667 35.7451C79.9477 36.5783 78.4207 37.1114 76.7851 37.3443C74.933 37.5889 73.0745 37.6465 71.2094 37.5172C70.023 37.435 68.8413 37.3053 67.6652 37.1282C66.8863 37.0475 66.1083 37.0475 65.3311 37.1282C65.1315 37.1558 64.9733 37.2495 64.8557 37.4091C64.7887 37.4503 64.717 37.4647 64.6396 37.4524C64.605 36.7869 64.5402 36.1242 64.4451 35.4641C64.2316 34.1387 64.0224 32.8132 63.8184 31.4877C63.8823 31.4763 63.9398 31.4907 63.9912 31.5309C65.9981 34.2286 68.6489 35.9647 71.9442 36.7392C73.8603 37.1378 75.7474 37.037 77.6064 36.4366C78.396 36.1468 79.037 35.6642 79.5298 34.9887C80.2628 33.5679 80.0251 32.336 78.8166 31.2932C78.065 30.7372 77.2437 30.305 76.3529 29.9965C74.2207 29.3049 72.0881 28.6134 69.956 27.9218C68.6087 27.4428 67.3553 26.7945 66.1956 25.9768C64.1788 24.3786 63.5668 22.3543 64.3586 19.904C64.7567 18.9718 65.3402 18.1722 66.1092 17.5051C67.7568 16.2638 69.6154 15.529 71.6849 15.3008C72.5096 15.1948 73.3308 15.13 74.1486 15.1063Z" fill="black"/>
<path opacity="0.991" fill-rule="evenodd" clip-rule="evenodd" d="M118.148 15.1063C118.435 15.0986 118.687 15.185 118.904 15.3656C118.919 15.769 118.933 16.1725 118.948 16.5759C121.45 15.3339 124.08 14.9377 126.836 15.3872C128.615 15.7115 130.15 16.4967 131.439 17.7429C132.092 18.473 132.568 19.3086 132.865 20.2498C133.765 25.0951 134.687 29.936 135.632 34.7726C135.759 35.2856 135.947 35.7755 136.193 36.2421C136.453 36.6167 136.806 36.8545 137.252 36.9553C137.711 37.0271 138.172 37.0703 138.636 37.085C138.751 37.2002 138.751 37.3155 138.636 37.4308C134.954 37.4385 131.273 37.4601 127.592 37.4956C127.443 37.5037 127.314 37.4604 127.203 37.3659C127.164 37.2568 127.186 37.1631 127.268 37.085C127.66 37.0799 128.049 37.051 128.435 36.9985C128.983 36.782 129.335 36.3858 129.494 35.8099C129.576 35.4546 129.627 35.0944 129.645 34.7293C129.612 34.1638 129.548 33.6019 129.451 33.0437C128.74 28.6789 128.034 24.3134 127.333 19.9472C127.137 18.7495 126.662 17.6833 125.906 16.7487C125.241 16.0852 124.434 15.7682 123.486 15.7979C121.926 15.8609 120.759 16.5668 119.985 17.9158C119.418 19.0162 119.072 20.1832 118.948 21.4168C118.919 25.4509 118.919 29.485 118.948 33.5191C118.937 34.3835 119.038 35.2335 119.25 36.0692C119.427 36.5723 119.78 36.8677 120.309 36.9553C120.711 37.0013 121.115 37.0302 121.519 37.0418C121.691 37.1891 121.677 37.3187 121.476 37.4308C118.047 37.4596 114.618 37.4596 111.189 37.4308C111.034 37.3731 110.983 37.265 111.038 37.1066C111.07 37.0795 111.106 37.0579 111.146 37.0418C111.479 37.029 111.81 37.0003 112.14 36.9553C112.62 36.8775 112.944 36.611 113.113 36.1557C113.319 35.4364 113.419 34.7016 113.415 33.9513C113.444 29.7155 113.444 25.4797 113.415 21.2439C113.42 20.5666 113.29 19.9183 113.026 19.2989C112.843 19.0298 112.591 18.8641 112.27 18.8018C111.634 18.795 110.999 18.8238 110.368 18.8883C110.321 18.7991 110.313 18.7054 110.346 18.6073C112.068 18.1394 113.718 17.4839 115.295 16.6407C116.256 16.139 117.207 15.6275 118.148 15.1063Z" fill="black"/>
<path opacity="0.985" fill-rule="evenodd" clip-rule="evenodd" d="M38.1879 15.236C39.899 15.2207 41.4983 15.6313 42.9856 16.4678C45.2323 17.942 46.3708 20.0382 46.4002 22.7567C46.3859 22.9007 46.3712 23.0449 46.357 23.1889C42.1139 24.5841 37.8637 25.9528 33.6063 27.2951C33.8244 28.8929 34.307 30.4057 35.0543 31.8334C36.2396 33.9242 38.0406 34.9903 40.4571 35.0319C42.9534 35.0011 44.9851 34.0214 46.5515 32.0928C47.2698 31.1827 47.8965 30.2102 48.4316 29.1752C48.6132 29.1731 48.7861 29.2163 48.9503 29.3049C48.149 31.4197 46.9387 33.2782 45.3196 34.8806C42.6722 37.2611 39.5746 38.1976 36.0268 37.6901C32.3077 36.9246 29.7648 34.7707 28.398 31.2283C27.4191 28.5629 27.275 25.8543 27.9657 23.1025C29.2804 19.0505 32.0106 16.522 36.1564 15.5169C36.8328 15.3694 37.5099 15.2758 38.1879 15.236ZM37.2802 15.8411C38.8679 15.9037 39.97 16.6673 40.5867 18.1319C40.9527 19.0193 41.1832 19.9414 41.2783 20.8981C41.4082 22.0221 41.4154 23.1459 41.2999 24.2695C38.7082 25.0885 36.1221 25.9241 33.5415 26.7764C33.2206 24.6403 33.2494 22.508 33.6279 20.3794C33.8309 19.0955 34.3064 17.9285 35.0543 16.8784C35.6449 16.1975 36.3869 15.8518 37.2802 15.8411Z" fill="black"/>
<path opacity="0.989" fill-rule="evenodd" clip-rule="evenodd" d="M98.0072 15.4088C103.356 15.3074 106.951 17.7567 108.791 22.7567C109.648 25.2282 109.72 27.7207 109.007 30.2342C108.054 32.9881 106.304 35.07 103.756 36.4799C100.661 38.1147 97.4194 38.5038 94.0307 37.6469C91.0898 36.6799 88.9793 34.7854 87.6986 31.9631C86.6301 29.5824 86.299 27.1044 86.7045 24.5288C87.4017 21.2376 89.2101 18.7668 92.1289 17.1161C93.9728 16.1295 95.9321 15.5604 98.0072 15.4088ZM95.8893 16.3597C96.691 16.3227 97.4401 16.5028 98.1368 16.9C98.9308 17.3913 99.6008 18.0181 100.147 18.7802C101.318 20.4899 102.182 22.3484 102.74 24.3559C103.326 26.275 103.7 28.2344 103.864 30.2342C103.955 31.4438 103.868 32.6396 103.605 33.8217C103.334 34.9983 102.707 35.9276 101.724 36.6095C100.065 37.4777 98.5241 37.3048 97.0995 36.0909C95.8097 34.8448 94.8372 33.3824 94.182 31.7038C92.804 28.382 92.1267 24.9242 92.1505 21.3303C92.1929 19.9935 92.5961 18.7832 93.3608 17.6996C94.0402 16.9387 94.883 16.492 95.8893 16.3597Z" fill="black"/>
<path opacity="0.985" fill-rule="evenodd" clip-rule="evenodd" d="M142.31 31.7038C143.879 31.5764 144.909 32.2536 145.4 33.7352C145.618 35.0054 145.193 35.9923 144.125 36.696C142.787 37.3102 141.628 37.0725 140.646 35.9828C139.925 34.9017 139.925 33.8211 140.646 32.7411C141.082 32.2023 141.637 31.8566 142.31 31.7038Z" fill="black"/>
</svg>
