<svg width="30" height="30" viewBox="0 0 30 30" fill="none" xmlns="http://www.w3.org/2000/svg">
<g clip-path="url(#clip0_2_115)">
<path opacity="0.1" d="M15 30C23.2842 30 30 23.2842 30 15C30 6.71573 23.2842 0 15 0C6.71573 0 0 6.71573 0 15C0 23.2842 6.71573 30 15 30Z" fill="#FF2A2A"/>
<path d="M22.0855 10.9091C19.8262 6.99579 14.8222 5.65499 10.9089 7.91435C6.99562 10.1737 5.65483 15.1775 7.91417 19.0909C10.1735 23.0043 15.1774 24.345 19.0908 22.0857C23.004 19.8263 24.3449 14.8225 22.0855 10.9091Z" fill="#FF2A2A"/>
<path fill-rule="evenodd" clip-rule="evenodd" d="M13.4353 20.4087C13.5718 20.5055 13.7704 20.48 13.8605 20.3543C13.8822 20.3242 14.2706 19.3287 14.7234 18.1425C15.1763 16.9561 15.5536 15.9815 15.5618 15.9768C15.5701 15.972 16.6028 16.1325 17.8565 16.3335C19.1104 16.5345 20.1665 16.696 20.2035 16.6923C20.426 16.6703 20.5433 16.3754 20.4053 16.185C20.3486 16.1067 12.6614 10.3202 12.5463 10.2691C12.3638 10.1881 12.1842 10.2756 12.1321 10.4711C12.1033 10.579 13.2687 20.1648 13.3245 20.279C13.3517 20.3347 13.3837 20.3722 13.4353 20.4087Z" fill="white"/>
</g>
<defs>
<clipPath id="clip0_2_115">
<rect width="30" height="30" fill="white"/>
</clipPath>
</defs>
</svg>
