<svg width="30" height="30" viewBox="0 0 30 30" fill="none" xmlns="http://www.w3.org/2000/svg">
<g clip-path="url(#clip0_2_131)">
<path opacity="0.1" d="M15 30C23.2842 30 30 23.2842 30 15C30 6.71573 23.2842 0 15 0C6.71573 0 0 6.71573 0 15C0 23.2842 6.71573 30 15 30Z" fill="#FF2A2A"/>
<path d="M7.91453 10.9091C5.65519 14.8225 6.99599 19.8263 10.9093 22.0857C14.8226 24.345 19.8265 23.0043 22.0859 19.0909C24.3452 15.1775 23.0044 10.1737 19.0911 7.91434C15.1778 5.65499 10.1739 6.9958 7.91453 10.9091Z" fill="#FF2A2A"/>
<path fill-rule="evenodd" clip-rule="evenodd" d="M20.4668 13.65C20.4823 13.4835 20.361 13.3241 20.207 13.3089C20.1701 13.3053 19.1139 13.4667 17.8601 13.6677C16.6063 13.8686 15.5737 14.0291 15.5653 14.0243C15.557 14.0195 15.1798 13.045 14.7268 11.8587C14.274 10.6724 13.8857 9.67701 13.8641 9.64681C13.7338 9.46513 13.4198 9.51102 13.324 9.72573C13.2846 9.81395 12.1168 19.3646 12.1301 19.4898C12.1512 19.6883 12.3168 19.8 12.5122 19.7475C12.62 19.7184 20.3387 13.9163 20.4099 13.8108C20.4444 13.7595 20.4609 13.713 20.4668 13.65Z" fill="white"/>
</g>
<defs>
<clipPath id="clip0_2_131">
<rect width="30" height="30" fill="white"/>
</clipPath>
</defs>
</svg>
