<svg width="8" height="9" viewBox="0 0 8 9" fill="none" xmlns="http://www.w3.org/2000/svg">
<path fill-rule="evenodd" clip-rule="evenodd" d="M3.64269 0.67473C3.13847 0.758173 2.71078 0.969756 2.35119 1.3136C2.14427 1.51147 2.00282 1.69928 1.87724 1.94285C1.75433 2.1812 1.6836 2.39103 1.6396 2.64776C1.59311 2.91893 1.60383 3.30894 1.66491 3.56911C1.83234 4.28222 2.2887 4.85864 2.94555 5.18663C3.59241 5.50964 4.4067 5.50964 5.05356 5.18663C5.71346 4.85711 6.16574 4.28388 6.3365 3.5606C6.37533 3.39623 6.37999 3.34257 6.38067 3.05372C6.38148 2.70627 6.36419 2.57968 6.27989 2.31653C6.2203 2.13054 6.09076 1.86424 5.97866 1.69731C5.85799 1.5176 5.61058 1.25927 5.42863 1.12298C5.17058 0.929682 4.81343 0.768179 4.48921 0.698154C4.29433 0.656076 3.83261 0.643287 3.64269 0.67473ZM4.13251 1.63318C4.16268 1.65367 4.203 1.69149 4.22211 1.7172C4.25553 1.7622 4.25701 1.78544 4.26178 2.34272L4.26674 2.92153L4.55416 3.15196C4.71224 3.27871 4.85691 3.40184 4.87565 3.42563C5.02361 3.61336 4.80597 3.89972 4.58206 3.81194C4.54767 3.79845 4.35445 3.65549 4.15267 3.49422C3.83637 3.24142 3.78216 3.19142 3.75916 3.13132C3.73599 3.07074 3.73313 2.97671 3.73738 2.41278C3.74213 1.78435 3.74337 1.76248 3.777 1.7172C3.83589 1.63792 3.91298 1.59591 3.99955 1.59591C4.0532 1.59591 4.09481 1.60757 4.13251 1.63318ZM1.15291 5.96358C1.13466 5.96756 1.0639 5.98995 0.995677 6.01336C0.566407 6.1606 0.281494 6.55975 0.281494 7.01386C0.281494 7.5017 0.59982 7.91553 1.07955 8.05138C1.18073 8.08002 1.32811 8.08154 3.99955 8.08154C6.671 8.08154 6.81837 8.08002 6.91956 8.05138C7.30036 7.94355 7.59048 7.65291 7.68483 7.28478C7.82235 6.74814 7.52902 6.20212 6.99722 6.0048L6.87939 5.96108L4.03275 5.95873C2.4671 5.95742 1.17117 5.9596 1.15291 5.96358ZM3.05229 6.78879C3.24157 6.88648 3.2426 7.14594 3.05407 7.24081C2.98017 7.278 2.9781 7.27809 2.14052 7.27809C1.30295 7.27809 1.30087 7.278 1.22698 7.24081C1.17129 7.21278 1.14327 7.18414 1.11402 7.12531C1.05097 6.99845 1.09035 6.87344 1.21783 6.79586C1.26632 6.76636 1.31628 6.76465 2.1372 6.7646C2.86699 6.76455 3.01277 6.7684 3.05229 6.78879Z" fill="white"/>
</svg>
