<svg width="8" height="10" viewBox="0 0 8 10" fill="none" xmlns="http://www.w3.org/2000/svg">
<path fill-rule="evenodd" clip-rule="evenodd" d="M3.74937 0.973787C2.84175 1.13199 2.12234 1.74241 1.84038 2.59359C1.67367 3.09681 1.69023 3.67298 1.88582 4.17459C2.26856 5.15621 3.27522 5.77673 4.33623 5.68506C5.18988 5.61131 5.91696 5.11618 6.29503 4.35118C6.64053 3.65211 6.61545 2.82436 6.22853 2.15711C5.87874 1.55385 5.3096 1.14184 4.61847 0.991523C4.43176 0.950924 3.93835 0.940846 3.74937 0.973787ZM1.84095 5.75613C1.67572 5.79193 1.57277 5.88186 1.48439 6.06763C1.01271 7.05914 0.658302 7.84872 0.640275 7.94828C0.603809 8.14959 0.660811 8.39874 0.784168 8.5772C0.845077 8.66529 0.992661 8.80275 1.06721 8.84079C1.0981 8.85656 1.73842 9.11141 2.49014 9.40715C3.51909 9.81194 3.89391 9.95172 4.0067 9.97273C4.29163 10.0258 4.69093 9.99884 4.9231 9.91094C5.12969 9.83274 7.51694 8.84616 7.60598 8.80221C7.92679 8.64381 8.08206 8.26303 7.95652 7.9425C7.94089 7.90258 7.68943 7.45237 7.39772 6.94203C6.9371 6.13615 6.85308 5.99977 6.75871 5.90487C6.67302 5.81869 6.62973 5.78965 6.55386 5.76741C6.34359 5.7058 6.18271 5.74288 5.85039 5.92955C5.59176 6.07483 5.43558 6.14427 5.18651 6.22461C4.38311 6.48385 3.47264 6.43339 2.71409 6.08756C2.63847 6.05308 2.48566 5.9736 2.37452 5.91093C2.11082 5.76224 1.98336 5.72527 1.84095 5.75613Z" fill="white"/>
</svg>
