<svg width="30" height="30" viewBox="0 0 30 30" fill="none" xmlns="http://www.w3.org/2000/svg">
<g clip-path="url(#clip0_1_23)">
<path opacity="0.1" d="M15 30C23.2842 30 30 23.2842 30 15C30 6.71573 23.2842 0 15 0C6.71573 0 0 6.71573 0 15C0 23.2842 6.71573 30 15 30Z" fill="black"/>
<path d="M19.0911 7.91435C15.1778 5.65499 10.1739 6.99579 7.91453 10.9091C5.65519 14.8225 6.99599 19.8263 10.9093 22.0857C14.8226 24.345 19.8265 23.0043 22.0859 19.0909C24.3452 15.1776 23.0044 10.1737 19.0911 7.91435Z" fill="black"/>
<path fill-rule="evenodd" clip-rule="evenodd" d="M16.3507 20.4661C16.5173 20.4817 16.6766 20.3603 16.6919 20.2064C16.6955 20.1693 16.5341 19.1131 16.3331 17.8594C16.1321 16.6056 15.9716 15.5729 15.9763 15.5647C15.9811 15.5564 16.9557 15.1791 18.1421 14.7262C19.3284 14.2733 20.3238 13.8851 20.3539 13.8634C20.5357 13.7332 20.4897 13.4191 20.2751 13.3232C20.1869 13.2839 10.6362 12.1161 10.511 12.1294C10.3124 12.1505 10.2007 12.3161 10.2532 12.5114C10.2822 12.6193 16.0845 20.3381 16.1899 20.4091C16.2413 20.4438 16.2877 20.4603 16.3507 20.4661Z" fill="white"/>
</g>
<defs>
<clipPath id="clip0_1_23">
<rect width="30" height="30" fill="white"/>
</clipPath>
</defs>
</svg>
