<svg width="30" height="30" viewBox="0 0 30 30" fill="none" xmlns="http://www.w3.org/2000/svg">
<g clip-path="url(#clip0_1_43)">
<path opacity="0.1" d="M15 30C23.2842 30 30 23.2842 30 15C30 6.71573 23.2842 0 15 0C6.71573 0 0 6.71573 0 15C0 23.2842 6.71573 30 15 30Z" fill="black"/>
<path d="M7.91453 19.0909C10.1739 23.0043 15.1778 24.345 19.0911 22.0857C23.0044 19.8263 24.3452 14.8225 22.0859 10.9091C19.8265 6.9958 14.8226 5.65499 10.9093 7.91434C6.99599 10.1737 5.65519 15.1775 7.91453 19.0909Z" fill="black"/>
<path fill-rule="evenodd" clip-rule="evenodd" d="M16.5648 9.59126C16.4283 9.49451 16.2296 9.51992 16.1395 9.64566C16.1178 9.67586 15.7294 10.6712 15.2766 11.8576C14.8237 13.0439 14.4464 14.0185 14.4382 14.0232C14.4299 14.028 13.3972 13.8675 12.1434 13.6665C10.8896 13.4655 9.83346 13.3041 9.79647 13.3078C9.57402 13.3297 9.45673 13.6246 9.59475 13.815C9.65145 13.8933 17.3387 19.6799 17.4538 19.7309C17.6362 19.812 17.8158 19.7245 17.868 19.5289C17.8968 19.421 16.7313 9.83527 16.6755 9.72093C16.6484 9.66532 16.6163 9.62785 16.5648 9.59126Z" fill="white"/>
</g>
<defs>
<clipPath id="clip0_1_43">
<rect width="30" height="30" fill="white"/>
</clipPath>
</defs>
</svg>
