<svg width="14" height="10" viewBox="0 0 14 10" fill="none" xmlns="http://www.w3.org/2000/svg">
<path d="M4.54851 6.46322C4.10833 6.46322 3.7115 6.21913 3.51283 5.82695C3.31364 5.43218 3.35234 4.96775 3.61397 4.61323L6.61885 0.528809H2.22635C1.44404 0.528809 0.807251 1.16508 0.807251 1.94791V6.85024C0.807251 7.63307 1.44404 8.26934 2.22635 8.26934H4.82046L5.22348 6.46322H4.54851Z" fill="black"/>
<path d="M12.2844 2.07692H12.16V1.94791C12.16 1.16508 11.5232 0.528809 10.7409 0.528809H9.30481C9.30016 0.572156 9.29655 0.616019 9.28675 0.659365L8.78464 2.85097H9.57986C10.0242 2.85097 10.4225 3.09815 10.6197 3.49601C10.8168 3.89284 10.7729 4.35934 10.5051 4.71334L7.8114 8.26934H10.7409C11.5232 8.26934 12.16 7.63307 12.16 6.85024V6.72124H12.2844C12.7824 6.72124 13.1875 6.31615 13.1875 5.81817V2.97998C13.1875 2.482 12.7824 2.07692 12.2844 2.07692Z" fill="black"/>
<path d="M5.8659 9.30151C5.8112 9.30151 5.75599 9.29015 5.70335 9.2659C5.53822 9.18953 5.44894 9.00788 5.48816 8.83037L6.18894 5.68926H4.54846C4.40242 5.68926 4.26877 5.60721 4.20323 5.47665C4.1377 5.34661 4.15008 5.19025 4.23678 5.07259L7.84335 0.170256C7.9512 0.0221538 8.14884 -0.0299658 8.31655 0.0479556C8.48323 0.124329 8.57354 0.307005 8.53226 0.48607L7.81342 3.62511H9.57981C9.72688 3.62511 9.86105 3.7082 9.92607 3.83979C9.99161 3.97137 9.97664 4.12877 9.88788 4.24591L6.17397 9.14824C6.09915 9.24732 5.98407 9.30151 5.8659 9.30151Z" fill="black"/>
</svg>
