<svg width="9" height="9" viewBox="0 0 9 9" fill="none" xmlns="http://www.w3.org/2000/svg">
<path d="M2.71606 2.71498C3.13274 2.71498 3.47053 2.37719 3.47053 1.96052C3.47053 1.54384 3.13274 1.20605 2.71606 1.20605C2.29939 1.20605 1.9616 1.54384 1.9616 1.96052C1.9616 2.37719 2.29939 2.71498 2.71606 2.71498Z" fill="black"/>
<path d="M4.73802 2.80733C4.61731 2.68662 4.43623 2.68662 4.31552 2.80733L2.71606 4.40679L2.02196 3.71269C1.90124 3.59197 1.72017 3.59197 1.59946 3.71269L1.20714 4.10501V6.03643H2.95749L2.98767 6.00625L5.4623 3.53162L4.73802 2.80733Z" fill="black"/>
<path d="M0.60357 6.33748V0.905354C0.60357 0.754462 0.754462 0.60357 0.905354 0.60357H6.33748C6.48837 0.60357 6.63926 0.754462 6.63926 0.905354V2.56517C6.82034 2.50481 7.03158 2.44446 7.24283 2.44446V0.905354C7.24283 0.39232 6.85051 0 6.33748 0H0.905354C0.39232 0 0 0.39232 0 0.905354V6.33748C0 6.85051 0.39232 7.24283 0.905354 7.24283H2.56517L2.68588 6.63926H0.905354C0.724283 6.63926 0.60357 6.51855 0.60357 6.33748Z" fill="black"/>
<path d="M8.11801 3.34927C7.66533 2.8966 6.94105 2.8966 6.48837 3.34927L6.33748 3.50017L7.96712 5.1298L8.11801 4.97891C8.57069 4.52623 8.57069 3.80195 8.11801 3.34927Z" fill="black"/>
<path d="M3.41017 6.42766C3.37999 6.45784 3.34981 6.5182 3.31963 6.57856L3.01785 8.08748C2.98767 8.17802 3.01785 8.29873 3.10838 8.35909C3.16874 8.41944 3.28945 8.44962 3.37999 8.44962L4.88891 8.14784C4.94927 8.14784 5.00963 8.11766 5.03981 8.0573L7.54462 5.55249L5.91498 3.92285L3.41017 6.42766Z" fill="black"/>
</svg>
