<svg width="16" height="16" viewBox="0 0 16 16" fill="none" xmlns="http://www.w3.org/2000/svg">
<path fill-rule="evenodd" clip-rule="evenodd" d="M5.66791 15.1359L13.478 5.03594C13.9025 4.49129 14.0534 3.8616 13.9119 3.22044C13.7893 2.63756 13.4309 2.08335 12.8932 1.66292L11.5821 0.62139C10.4408 -0.286365 9.02588 -0.190812 8.21469 0.850717L7.33746 1.98876C7.22427 2.13113 7.25257 2.34135 7.39406 2.45601C7.39406 2.45601 9.6107 4.2333 9.65786 4.27152C9.80878 4.41485 9.92197 4.60596 9.95027 4.83528C9.99743 5.28438 9.68616 5.70482 9.22397 5.76215C9.00702 5.79081 8.7995 5.72393 8.64858 5.59971L6.31875 3.74598C6.20556 3.66094 6.03578 3.67909 5.94145 3.79375L0.404567 10.9602C0.046132 11.4093 -0.0764907 11.9922 0.046132 12.556L0.75357 15.6232C0.7913 15.7857 0.932788 15.9003 1.10257 15.9003L4.2153 15.8621C4.78125 15.8526 5.30947 15.5946 5.66791 15.1359ZM10.0263 14.1805H15.102C15.5972 14.1805 16 14.5885 16 15.0901C16 15.5927 15.5972 15.9998 15.102 15.9998H10.0263C9.53114 15.9998 9.12837 15.5927 9.12837 15.0901C9.12837 14.5885 9.53114 14.1805 10.0263 14.1805Z" fill="black"/>
</svg>
