<svg width="16" height="16" viewBox="0 0 16 16" fill="none" xmlns="http://www.w3.org/2000/svg">
<path opacity="0.8" fill-rule="evenodd" clip-rule="evenodd" d="M7.2498 0.0102217C6.7317 0.0721488 6.56097 0.0973126 6.29608 0.150746C5.10584 0.390912 3.95921 0.92512 2.96539 1.70247C2.62885 1.96571 2.03059 2.55998 1.75341 2.90638C-0.194697 5.34071 -0.547624 8.60855 0.835911 11.4019C1.2224 12.1822 1.71097 12.8611 2.32986 13.4779C2.9517 14.0976 3.61585 14.5741 4.40087 14.9638C4.95571 15.2393 5.44092 15.4159 6.05167 15.5649C6.76456 15.7387 6.9531 15.7582 7.91535 15.7573C8.66845 15.7566 8.84073 15.7471 9.18305 15.6871C9.70388 15.5957 10.3164 15.4255 10.7677 15.2467C11.1651 15.0892 11.8638 14.7379 12.0267 14.6138C12.2526 14.4416 12.3701 14.0773 12.2925 13.7901C12.2004 13.4495 11.9102 13.2385 11.5339 13.2385C11.3431 13.2385 11.2902 13.2527 11.113 13.351C10.4307 13.7296 9.81027 13.9655 9.10381 14.1151C8.72008 14.1963 8.63854 14.2024 7.91535 14.2037C7.05271 14.2053 6.8102 14.1751 6.14044 13.983C4.9449 13.6399 3.76306 12.861 2.99664 11.911C2.24369 10.9777 1.75762 9.83236 1.61016 8.64395C1.56741 8.29926 1.56734 7.52996 1.61003 7.18445C1.84094 5.31659 2.85222 3.6779 4.41605 2.63759C5.43592 1.95912 6.63611 1.60042 7.88365 1.60125C8.89553 1.60191 9.75754 1.80075 10.6567 2.24093C12.3343 3.06211 13.5621 4.57936 14.0166 6.39296C14.2975 7.51348 14.2553 8.74952 13.8989 9.84744C13.8185 10.0953 13.775 10.1699 13.6065 10.3493C13.194 10.7882 12.4772 10.7889 12.0391 10.3508C11.8602 10.1719 11.7573 9.96195 11.7191 9.69801C11.701 9.57305 11.6874 8.47411 11.6867 7.07435C11.6854 4.79629 11.6822 4.65884 11.6265 4.53895C11.5 4.2663 11.246 4.1111 10.9261 4.1111C10.5348 4.1111 10.2351 4.35108 10.1714 4.71548L10.1497 4.83962L10.0071 4.74295C9.78438 4.592 9.35054 4.38185 9.07133 4.28969C8.69235 4.16457 8.32925 4.1112 7.85694 4.11113C6.84538 4.11104 5.97542 4.45544 5.25606 5.14076C4.67824 5.69126 4.32063 6.32333 4.14068 7.11206C4.04883 7.51462 4.04154 8.26871 4.12575 8.65897C4.28554 9.39978 4.60649 10.0138 5.10999 10.5418C5.68831 11.1483 6.36929 11.5159 7.20227 11.6713C7.59671 11.7449 8.42189 11.7203 8.78689 11.624C9.37041 11.4701 9.93413 11.1858 10.3103 10.8555C10.3713 10.8019 10.4252 10.7635 10.4301 10.7702C10.435 10.7769 10.5198 10.9053 10.6185 11.0557C11.1162 11.8133 11.8985 12.2236 12.8464 12.2242C13.604 12.2246 14.2715 11.9407 14.7644 11.4082C15.1219 11.0221 15.2882 10.6974 15.472 10.0267C16.0526 7.90827 15.7243 5.56994 14.5889 3.73685C13.3612 1.7548 11.3469 0.427263 9.02458 0.0697085C8.7068 0.0207753 7.49983 -0.0196643 7.2498 0.0102217ZM8.33889 5.69826C9.0938 5.84538 9.7602 6.44183 10.0322 7.21392C10.1092 7.43244 10.117 7.49703 10.117 7.9142C10.117 8.33137 10.1092 8.39596 10.0322 8.61448C9.98556 8.74689 9.89422 8.94655 9.82929 9.05817C9.67783 9.31843 9.28788 9.70837 9.02763 9.85983C7.73277 10.6134 6.10187 9.9384 5.69824 8.48191C5.61942 8.19753 5.61187 7.70874 5.68172 7.41244C5.96331 6.21808 7.13327 5.46333 8.33889 5.69826Z" fill="black"/>
</svg>
