<svg width="12" height="9" viewBox="0 0 12 9" fill="none" xmlns="http://www.w3.org/2000/svg">
<path fill-rule="evenodd" clip-rule="evenodd" d="M5.729 0.109323C5.92227 -0.0383932 6.20304 -0.0361846 6.39354 0.11455L8.80756 2.0247V1.27275C8.80756 1.23567 8.83762 1.2056 8.87471 1.2056H9.76995C9.80704 1.2056 9.8371 1.23567 9.8371 1.27275V2.84285C10.2562 3.17793 10.817 3.62545 10.9123 3.69821C11.0587 3.81006 11.2611 4.04441 10.7019 4.04441H9.88012V8.50519C9.88012 8.77861 9.65848 9.00026 9.38506 9.00026H2.62055C2.34714 9.00026 2.12549 8.77861 2.12549 8.50519V4.04441H1.29856C0.739308 4.04441 0.941702 3.81006 1.08817 3.69821C1.1965 3.61549 1.9065 3.0484 2.32592 2.71283C2.33678 2.70291 2.34821 2.69335 2.3602 2.68418L2.39418 2.65821L2.42238 2.63564L2.42223 2.63677L5.729 0.109323Z" fill="#C1C1C1"/>
<path fill-rule="evenodd" clip-rule="evenodd" d="M6.27424 1.00531C6.12186 0.884275 5.89726 0.882502 5.74266 1.00111L2.97297 3.12612C2.95509 3.13984 2.93879 3.15466 2.92408 3.17038C2.84088 3.2431 2.78833 3.35 2.78833 3.46918V7.91084C2.78833 8.12993 2.96594 8.30754 3.18503 8.30754H8.73599C8.95508 8.30754 9.13269 8.12993 9.13269 7.91084V3.46918C9.13269 3.35286 9.08263 3.24823 9.00288 3.17567C8.99261 3.16552 8.98165 3.15578 8.96998 3.14651L6.27424 1.00531Z" fill="#D0D0D0"/>
<path fill-rule="evenodd" clip-rule="evenodd" d="M6.20044 1.84195C6.08378 1.74762 5.91184 1.74624 5.79348 1.83868L3.65413 3.50976C3.6435 3.51806 3.6336 3.52687 3.62444 3.53613C3.55649 3.5923 3.51318 3.67724 3.51318 3.77229V7.27012C3.51318 7.43926 3.65029 7.57637 3.81943 7.57637H8.09974C8.26888 7.57637 8.40599 7.43926 8.40599 7.27012V3.77229C8.40599 3.67795 8.36333 3.59358 8.29626 3.5374C8.29187 3.53342 8.28733 3.52953 8.28265 3.52574L6.20044 1.84195Z" fill="#DBDBDB"/>
<path fill-rule="evenodd" clip-rule="evenodd" d="M6.12748 2.81671C6.04599 2.74949 5.92589 2.7485 5.84322 2.81438L4.36775 3.99007C4.3572 3.99848 4.34767 4.00763 4.33919 4.01737C4.29615 4.05684 4.26917 4.11355 4.26917 4.17656V6.64299C4.26917 6.76225 4.36585 6.85894 4.48511 6.85894H7.43526C7.55453 6.85894 7.65121 6.76225 7.65121 6.64299V4.17656C7.65121 4.11258 7.62338 4.05509 7.57917 4.01555C7.57426 4.01063 7.56906 4.0059 7.56356 4.00137L6.12748 2.81671Z" fill="#E5E5E5"/>
<path fill-rule="evenodd" clip-rule="evenodd" d="M6.06341 3.64123C6.01322 3.59899 5.93923 3.59837 5.88831 3.63976L4.9906 4.36934C4.98356 4.37505 4.97727 4.38131 4.97173 4.388C4.94534 4.41253 4.92883 4.44754 4.92883 4.4864V6.02034C4.92883 6.09451 4.98896 6.15464 5.06313 6.15464H6.8568C6.93097 6.15464 6.9911 6.09451 6.9911 6.02034V4.4864C6.9911 4.452 6.97816 4.42062 6.95689 4.39685C6.95118 4.38951 6.94461 4.38264 6.93718 4.37638L6.06341 3.64123Z" fill="#F0F0F0"/>
</svg>
