<svg width="14" height="18" viewBox="0 0 14 18" fill="none" xmlns="http://www.w3.org/2000/svg">
<path opacity="0.8" fill-rule="evenodd" clip-rule="evenodd" d="M6.36521 0.0217541C4.91527 0.290024 3.74814 1.37538 3.39262 2.78615C3.29116 3.18868 3.26048 3.75256 3.26017 5.21958L3.25986 6.60051H2.50133C1.64783 6.60051 1.49023 6.62676 1.08396 6.83652C0.756507 7.00554 0.395121 7.37608 0.23028 7.71183C-0.0123142 8.20577 0.000107183 7.9584 0.000107183 12.3001C0.000107183 16.6419 -0.0123142 16.3945 0.23028 16.8885C0.395121 17.2242 0.756507 17.5948 1.08396 17.7638C1.57251 18.016 1.16549 17.9998 7 17.9998C12.8345 17.9998 12.4275 18.016 12.916 17.7638C13.2435 17.5948 13.6049 17.2242 13.7697 16.8885C14.0123 16.3945 13.9999 16.6419 13.9999 12.3001C13.9999 7.9584 14.0123 8.20577 13.7697 7.71183C13.6049 7.37608 13.2435 7.00554 12.916 6.83652C12.5083 6.62598 12.3536 6.60051 11.4833 6.60051H10.7093L10.6978 4.83257C10.6867 3.14941 10.6826 3.05168 10.6123 2.79459C10.3158 1.71131 9.62445 0.851192 8.66419 0.37098C8.11535 0.0965179 7.77798 0.0168285 7.10294 0.00226272C6.79155 -0.00445723 6.45957 0.00430333 6.36521 0.0217541ZM7.59856 1.49849C8.01076 1.60657 8.31083 1.78776 8.64827 2.13227C8.87206 2.36079 8.97064 2.49357 9.06631 2.6952C9.2959 3.17925 9.29898 3.20961 9.29898 4.99596V6.60051H6.97989H4.66077L4.67521 4.99089C4.69127 3.20131 4.6924 3.19096 4.93215 2.6952C5.10382 2.34021 5.54097 1.88656 5.89223 1.699C6.39804 1.4289 7.04378 1.35301 7.59856 1.49849ZM12.2576 8.12312C12.3627 8.18645 12.4532 8.27923 12.5149 8.387L12.6102 8.55316V12.3001V16.0471L12.5149 16.2133C12.4532 16.3211 12.3627 16.4138 12.2576 16.4772L12.0955 16.5749H7H1.90449L1.74243 16.4772C1.63733 16.4138 1.54684 16.3211 1.48508 16.2133L1.38979 16.0471V12.3001V8.55316L1.48384 8.38911C1.58689 8.20939 1.76226 8.079 1.95311 8.04023C2.02071 8.02648 4.33043 8.01754 7.08578 8.02032L12.0955 8.02542L12.2576 8.12312ZM6.54885 10.1141C6.30173 10.2157 6.08188 10.3962 5.94007 10.6139C5.7686 10.8772 5.72043 11.0684 5.73535 11.4264C5.75031 11.7857 5.8607 12.0434 6.10847 12.2974L6.2739 12.467L6.28522 13.3072C6.29603 14.1077 6.30042 14.1552 6.37794 14.3167C6.42906 14.4232 6.51104 14.5213 6.59847 14.5806C6.71901 14.6623 6.77278 14.675 7 14.675C7.29805 14.675 7.43667 14.6057 7.58641 14.3818C7.6676 14.2604 7.66931 14.242 7.6794 13.3792L7.6897 12.5002L7.87252 12.3157C7.97305 12.2142 8.0997 12.0386 8.15388 11.9254C8.24341 11.7385 8.25243 11.6858 8.25243 11.3502C8.25243 11.0163 8.24313 10.9614 8.15574 10.7789C8.03252 10.5216 7.80815 10.2915 7.55721 10.1652C7.38949 10.0807 7.31198 10.0647 7.03431 10.0573C6.78129 10.0505 6.67265 10.0632 6.54885 10.1141Z" fill="black"/>
</svg>
