<svg width="27" height="28" viewBox="0 0 27 28" fill="none" xmlns="http://www.w3.org/2000/svg">
<path fill-rule="evenodd" clip-rule="evenodd" d="M10.7634 0.166388C11.3525 -0.0103392 11.9747 -0.0468896 12.5805 0.0596309C13.1863 0.166151 13.7587 0.41281 14.2522 0.779917C14.7457 1.14702 15.1465 1.6244 15.4226 2.17394C15.6988 2.7235 15.8427 3.33 15.8428 3.94504V23.179C15.8427 23.794 15.6988 24.4005 15.4226 24.9501C15.1465 25.4996 14.7457 25.977 14.2522 26.3441C13.7587 26.7111 13.1863 26.9579 12.5805 27.0644C11.9747 27.1709 11.3525 27.1344 10.7634 26.9576L2.87202 24.5902C2.05934 24.3464 1.34689 23.8471 0.840358 23.1665C0.333824 22.4858 0.0602033 21.66 0.0600586 20.8115V6.31246C0.0602033 5.464 0.333824 4.63818 0.840358 3.95751C1.34689 3.27685 2.05934 2.77759 2.87202 2.5338L10.7634 0.166388ZM9.26667 12.2468C8.91784 12.2468 8.58331 12.3854 8.33666 12.632C8.09001 12.8786 7.95144 13.2132 7.95144 13.562C7.95144 13.9108 8.09001 14.2454 8.33666 14.492C8.58331 14.7386 8.91784 14.8772 9.26667 14.8772H9.26798C9.61681 14.8772 9.95134 14.7386 10.198 14.492C10.4446 14.2454 10.5832 13.9108 10.5832 13.562C10.5832 13.2132 10.4446 12.8786 10.198 12.632C9.95134 12.3854 9.61681 12.2468 9.26798 12.2468H9.26667Z" fill="black"/>
<path d="M19.6504 2.82696C19.5112 2.97317 19.433 3.17145 19.433 3.37821C19.433 3.58497 19.5112 3.78326 19.6504 3.92946C19.7897 4.07565 19.9785 4.15779 20.1754 4.15779H22.4028C22.5997 4.15779 22.7886 4.23992 22.9278 4.38612C23.067 4.53232 23.1453 4.73061 23.1453 4.93737V5.71694C23.1453 5.9237 23.2235 6.12199 23.3627 6.26819C23.5019 6.41439 23.6908 6.49652 23.8877 6.49652C24.0846 6.49652 24.2735 6.41439 24.4127 6.26819C24.5519 6.12199 24.6302 5.9237 24.6302 5.71694V4.93737C24.6302 4.3171 24.3955 3.72223 23.9778 3.28363C23.5601 2.84503 22.9935 2.59863 22.4028 2.59863H20.1754C19.9785 2.59863 19.7897 2.68077 19.6504 2.82696Z" fill="black"/>
<path d="M19.6504 24.4582C19.5112 24.312 19.433 24.1137 19.433 23.9069C19.433 23.7002 19.5112 23.5019 19.6504 23.3557C19.7897 23.2095 19.9785 23.1274 20.1754 23.1274H22.4028C22.5997 23.1274 22.7886 23.0452 22.9278 22.899C23.067 22.7528 23.1453 22.5545 23.1453 22.3478V21.5682C23.1453 21.3615 23.2235 21.1632 23.3627 21.017C23.5019 20.8708 23.6908 20.7886 23.8877 20.7886C24.0846 20.7886 24.2735 20.8708 24.4127 21.017C24.5519 21.1632 24.6302 21.3615 24.6302 21.5682V22.3478C24.6302 22.9681 24.3955 23.5629 23.9778 24.0015C23.5601 24.4401 22.9935 24.6865 22.4028 24.6865H20.1754C19.9785 24.6865 19.7897 24.6044 19.6504 24.4582Z" fill="black"/>
<path fill-rule="evenodd" clip-rule="evenodd" d="M21.489 10.0005C22.0026 9.48683 22.8354 9.48683 23.349 10.0005L25.9791 12.6305L25.9822 12.6337C26.1069 12.7592 26.2012 12.9034 26.2649 13.0575C26.3292 13.2125 26.3647 13.3826 26.3647 13.5609C26.3647 13.7393 26.3292 13.9093 26.2649 14.0644C26.2012 14.2184 26.1069 14.3627 25.9822 14.4882L25.9795 14.4909L23.349 17.1214C22.8354 17.635 22.0026 17.635 21.489 17.1214C20.9754 16.6078 20.9754 15.775 21.489 15.2614L21.8742 14.8762H18.4733C17.7469 14.8762 17.1581 14.2873 17.1581 13.5609C17.1581 12.8345 17.7469 12.2457 18.4733 12.2457H21.8742L21.489 11.8605C20.9754 11.3469 20.9754 10.5141 21.489 10.0005Z" fill="black"/>
</svg>
