<svg width="10" height="8" viewBox="0 0 10 8" fill="none" xmlns="http://www.w3.org/2000/svg">
<path fill-rule="evenodd" clip-rule="evenodd" d="M5.25696 0.154863C5.39301 0.255729 5.41805 0.292146 5.78307 0.920309C5.96379 1.23132 6.16638 1.57836 6.23332 1.69152C6.30025 1.80468 6.35508 1.91272 6.35521 1.93159C6.35539 1.96523 5.01199 3.29889 4.9779 3.29889C4.9579 3.29889 3.6351 1.99388 3.62342 1.96264C3.61918 1.95124 3.72281 1.76006 3.85373 1.53775C3.98465 1.31547 4.09178 1.12811 4.09178 1.12142C4.09178 1.11474 4.14555 1.02272 4.21125 0.91694C4.27697 0.811162 4.37323 0.647055 4.42513 0.552258C4.62025 0.196012 4.75936 0.0857331 5.01491 0.0847301C5.13478 0.0842414 5.179 0.097049 5.25696 0.154863ZM4.11265 2.87079C4.46309 3.21526 4.7498 3.5061 4.7498 3.51709C4.7498 3.52807 3.80824 4.45659 2.65746 5.58047C0.603332 7.58658 0.56464 7.62261 0.537924 7.55397C0.505312 7.47013 0.54074 7.25086 0.607254 7.1251C0.642761 7.05797 1.12962 6.21771 1.46087 5.65189C1.49393 5.59541 1.57071 5.46243 1.63151 5.35634C1.69232 5.25025 1.77338 5.11137 1.81168 5.04772C1.84998 4.98407 1.91681 4.86834 1.96021 4.79054C2.00362 4.71274 2.05081 4.63173 2.0651 4.61052C2.09103 4.57199 2.43547 3.98063 2.55944 3.76182C2.5955 3.69817 2.66944 3.57086 2.72371 3.47892C2.77801 3.38698 2.84847 3.26546 2.88032 3.20888C3.07017 2.87154 3.44722 2.24445 3.46017 2.24445C3.46862 2.24445 3.76224 2.5263 4.11265 2.87079ZM6.58683 2.31518C6.61476 2.35406 6.7192 2.52807 6.81893 2.70182C6.91866 2.87558 7.03298 3.07232 7.07299 3.13903C7.11299 3.20574 7.15856 3.29216 7.17427 3.33104C7.18998 3.36993 7.21212 3.40177 7.22349 3.40177C7.23486 3.40177 7.251 3.42201 7.25934 3.44677C7.27458 3.49211 7.3064 3.54797 7.50468 3.87755C7.56424 3.97657 7.64584 4.11544 7.68603 4.18617C7.7262 4.25689 7.7825 4.35526 7.81111 4.40477C7.83972 4.45428 7.89284 4.54686 7.92911 4.61052C7.9654 4.67417 8.04252 4.80726 8.10051 4.90627C8.41176 5.43786 8.55926 5.69245 8.81579 6.14074C8.9291 6.33877 9.07131 6.5818 9.1318 6.68082C9.43749 7.18106 9.50919 7.3686 9.46126 7.54247C9.44602 7.59779 9.42307 7.64938 9.41025 7.65713C9.39746 7.66487 9.11648 7.40396 8.78586 7.07734C8.45521 6.75074 7.83738 6.1402 7.41287 5.72061C6.98834 5.30102 6.31431 4.63644 5.91501 4.24378C5.5157 3.85111 5.19679 3.52128 5.20629 3.51081C5.30979 3.39678 6.50208 2.24445 6.51658 2.24445C6.5273 2.24445 6.55891 2.27629 6.58683 2.31518ZM5.3544 4.09507C5.55028 4.29251 6.48042 5.21383 7.4214 6.14244C8.36238 7.07106 9.13606 7.84073 9.14072 7.85281C9.14538 7.86493 9.11577 7.88391 9.07492 7.89504C9.03407 7.90618 7.18846 7.91528 4.97353 7.91528C0.914 7.91528 0.801635 7.91297 0.801635 7.82967C0.801635 7.80572 4.95948 3.7361 4.98396 3.7361C4.99185 3.7361 5.15855 3.89764 5.3544 4.09507Z" fill="white"/>
</svg>
