<svg width="20" height="20" viewBox="0 0 20 20" fill="none" xmlns="http://www.w3.org/2000/svg">
<path d="M19.1673 2.50838L19.896 2.68584C19.97 2.38209 19.8478 2.06432 19.5894 1.8884C19.3309 1.71247 18.9905 1.71531 18.735 1.89551L19.1673 2.50838ZM16.5506 3.78338L15.9847 4.27556C16.1783 4.49815 16.4844 4.58659 16.7669 4.50153L16.5506 3.78338ZM10.0007 6.28338H10.7507L10.7506 6.27333L10.0007 6.28338ZM10.0007 7.11671L10.0201 7.86646C10.4266 7.85592 10.7507 7.52335 10.7507 7.11671H10.0007ZM2.50061 3.34171L3.05636 2.83809C2.88605 2.65015 2.63229 2.56102 2.38186 2.60117C2.13143 2.64133 1.91826 2.80534 1.81525 3.03711L2.50061 3.34171ZM6.66727 14.175L7.0885 14.7956C7.31382 14.6426 7.43853 14.3796 7.4143 14.1083C7.39008 13.8371 7.22073 13.6003 6.97188 13.4897L6.66727 14.175ZM0.833939 15.8417L0.863748 15.0923C0.516707 15.0785 0.205587 15.3048 0.111801 15.6392C0.0180148 15.9736 0.166099 16.3287 0.469707 16.4973L0.833939 15.8417ZM17.5006 6.25838H18.2507L18.2506 6.2559L17.5006 6.25838ZM17.434 5.56671L16.9074 5.03271C16.7291 5.2085 16.6503 5.46163 16.6973 5.70753L17.434 5.56671ZM18.735 1.89551C18.0029 2.41193 17.1923 2.80691 16.3344 3.06523L16.7669 4.50153C17.7792 4.1967 18.7357 3.73063 19.5996 3.12125L18.735 1.89551ZM17.1166 3.2912C16.5139 2.5982 15.7129 2.10701 14.8219 1.88408L14.4578 3.33922C15.0507 3.48757 15.5837 3.81441 15.9847 4.27556L17.1166 3.2912ZM14.8219 1.88408C13.9309 1.66115 12.993 1.71723 12.1349 2.04473L12.6698 3.44612C13.2408 3.22819 13.8649 3.19088 14.4578 3.33922L14.8219 1.88408ZM12.1349 2.04473C11.2769 2.37223 10.5401 2.95535 10.0243 3.71523L11.2653 4.55772C11.6086 4.05208 12.0989 3.66405 12.6698 3.44612L12.1349 2.04473ZM10.0243 3.71523C9.50838 4.47511 9.23837 5.37509 9.25068 6.29343L10.7506 6.27333C10.7424 5.66223 10.9221 5.06337 11.2653 4.55772L10.0243 3.71523ZM9.25061 6.28338V7.11671H10.7507V6.28338H9.25061ZM9.98116 6.36696C8.64033 6.40173 7.31172 6.10436 6.11365 5.50133L5.43926 6.84118C6.85829 7.55542 8.43193 7.90764 10.0201 7.86646L9.98116 6.36696ZM6.11365 5.50133C5.57028 5.22783 4.82313 4.59399 4.16544 3.96675C3.84792 3.66393 3.56928 3.38031 3.36997 3.17231C3.27048 3.06848 3.19117 2.98393 3.13714 2.92578C3.11014 2.89671 3.08947 2.87427 3.07579 2.85935C3.06895 2.85189 3.06386 2.84632 3.06059 2.84273C3.05896 2.84094 3.05778 2.83965 3.05708 2.83887C3.05672 2.83848 3.05647 2.83822 3.05636 2.83809C3.05637 2.83809 3.0563 2.83802 3.05636 2.83809C3.05639 2.83813 3.05636 2.83809 2.50061 3.34171C1.94486 3.84534 1.94491 3.8454 1.94497 3.84546C1.94533 3.84585 1.94641 3.84705 1.94701 3.84771C1.9482 3.84902 1.94987 3.85085 1.952 3.85319C1.95626 3.85786 1.96237 3.86455 1.97026 3.87316C1.98603 3.89036 2.00891 3.9152 2.03826 3.94678C2.09692 4.00992 2.18153 4.10012 2.28692 4.2101C2.49737 4.42973 2.79233 4.73 3.1302 5.05223C3.7833 5.6751 4.67407 6.45603 5.43926 6.84118L6.11365 5.50133ZM2.50061 3.34171C1.81525 3.03711 1.81542 3.03671 1.81525 3.03711C1.81517 3.03727 1.81465 3.03846 1.8145 3.0388C1.8142 3.03947 1.81385 3.04027 1.81345 3.04118C1.81266 3.043 1.81166 3.04527 1.81047 3.04801C1.80809 3.05347 1.80495 3.06076 1.8011 3.06982C1.79339 3.08794 1.78284 3.11317 1.76988 3.14515C1.74398 3.2091 1.7084 3.30018 1.66671 3.41549C1.58342 3.64588 1.4752 3.97443 1.37085 4.37788C1.16307 5.1813 0.965762 6.30051 1.02222 7.54244C1.07882 8.78764 1.39162 10.1717 2.21856 11.4774C3.04852 12.7878 4.36775 13.9738 6.36267 14.8604L6.97188 13.4897C5.21681 12.7097 4.1402 11.7081 3.48579 10.6748C2.82836 9.63675 2.56824 8.52079 2.52067 7.47432C2.47296 6.42458 2.64023 5.46046 2.82308 4.75346C2.91405 4.4017 3.00765 4.11828 3.07735 3.92549C3.11216 3.82921 3.14087 3.7559 3.16013 3.70836C3.16976 3.6846 3.17701 3.66731 3.18146 3.65684C3.18368 3.65161 3.18521 3.64809 3.18598 3.64632C3.18636 3.64543 3.18656 3.64499 3.18656 3.64498C3.18658 3.64493 3.18651 3.64509 3.18656 3.64498C3.18644 3.64526 3.18597 3.64632 2.50061 3.34171ZM6.24605 13.5545C4.66253 14.6294 2.77613 15.1684 0.863748 15.0923L0.804131 16.5911C3.03702 16.6799 5.23957 16.0506 7.0885 14.7956L6.24605 13.5545ZM0.469707 16.4973C4.4271 18.6959 8.8638 18.7144 12.3322 16.8684C15.8188 15.0126 18.2507 11.3125 18.2507 6.25838H16.7506C16.7506 10.7876 14.5991 13.9625 11.6274 15.5442C8.63742 17.1357 4.74079 17.1542 1.19818 15.1861L0.469707 16.4973ZM18.2506 6.2559C18.2497 5.97735 18.2229 5.69949 18.1706 5.4259L16.6973 5.70753C16.7322 5.88992 16.75 6.07516 16.7507 6.26086L18.2506 6.2559ZM17.9606 6.10072C18.9103 5.16418 19.5804 3.98174 19.896 2.68584L18.4386 2.33092C18.1889 3.35621 17.6587 4.29173 16.9074 5.03271L17.9606 6.10072Z" fill="#929CAD"/>
</svg>
