<svg width="40" height="41" viewBox="0 0 40 41" fill="none" xmlns="http://www.w3.org/2000/svg">
<mask id="mask0_10_369" style="mask-type:luminance" maskUnits="userSpaceOnUse" x="0" y="0" width="40" height="41">
<path d="M40 0.920898H0V40.9209H40V0.920898Z" fill="white"/>
</mask>
<g mask="url(#mask0_10_369)">
<path d="M8.99992 7.14094C9.10036 7.23995 9.21994 7.31744 9.35135 7.36864C9.48276 7.41985 9.62323 7.4437 9.76418 7.43874C9.90513 7.43378 10.0436 7.40012 10.1711 7.3398C10.2986 7.27949 10.4124 7.19379 10.5056 7.08796C10.5988 6.98213 10.6695 6.85839 10.7133 6.72432C10.757 6.59024 10.7729 6.44865 10.7601 6.3082C10.7472 6.16775 10.7058 6.0314 10.6385 5.9075C10.5711 5.7836 10.4791 5.67475 10.3683 5.58761L6.84992 1.75427L3.29992 5.58761C3.1915 5.67651 3.10223 5.7865 3.03754 5.9109C2.97284 6.0353 2.93405 6.17153 2.92352 6.31135C2.91298 6.45117 2.93092 6.59168 2.97626 6.72436C3.02159 6.85705 3.09336 6.97917 3.18725 7.08332C3.28113 7.18747 3.39516 7.27149 3.52245 7.3303C3.64974 7.38911 3.78764 7.42149 3.9278 7.42547C4.06796 7.42946 4.20747 7.40497 4.33789 7.35348C4.46832 7.302 4.58694 7.22459 4.68659 7.12594L1.89159 10.6676C1.79347 10.7641 1.71558 10.8792 1.66249 11.0062C1.60939 11.1332 1.58215 11.2695 1.58237 11.4071C1.58258 11.5447 1.61025 11.6809 1.66374 11.8077C1.71723 11.9346 1.79547 12.0494 1.8939 12.1456C1.99232 12.2418 2.10894 12.3174 2.23693 12.368C2.36493 12.4186 2.50173 12.4432 2.63933 12.4403C2.77693 12.4373 2.91256 12.407 3.0383 12.351C3.16403 12.2951 3.27734 12.2146 3.37159 12.1143L1.15159 14.9526C1.00659 15.0975 0.907793 15.2821 0.86769 15.4831C0.827587 15.6841 0.847977 15.8925 0.926283 16.082C1.00459 16.2714 1.13729 16.4334 1.30763 16.5474C1.47796 16.6614 1.67828 16.7224 1.88326 16.7226H11.8183C12.0236 16.7224 12.2243 16.6612 12.3949 16.5467C12.5654 16.4323 12.6981 16.2698 12.7761 16.0798C12.8542 15.8898 12.874 15.6809 12.8331 15.4796C12.7923 15.2784 12.6925 15.0938 12.5466 14.9493L10.3799 12.1326C10.5788 12.3063 10.8365 12.3975 11.1004 12.3877C11.3642 12.3779 11.6144 12.2678 11.7998 12.0798C11.9853 11.8918 12.092 11.6401 12.0982 11.3762C12.1044 11.1122 12.0096 10.8558 11.8333 10.6593L8.99992 7.14094Z" stroke="#4285F5" stroke-width="1.5" stroke-linecap="round" stroke-linejoin="round"/>
<path d="M6.6748 16.7225V19.2442" stroke="#4285F5" stroke-width="1.5" stroke-linecap="round" stroke-linejoin="round"/>
<path d="M34.86 26.0876C34.9726 26.1926 35.1051 26.274 35.2496 26.327C35.3942 26.3799 35.5479 26.4034 35.7017 26.396C35.8555 26.3886 36.0062 26.3505 36.145 26.284C36.2839 26.2174 36.4079 26.1237 36.51 26.0084C36.612 25.8931 36.69 25.7586 36.7392 25.6127C36.7884 25.4668 36.8079 25.3126 36.7966 25.159C36.7852 25.0055 36.7433 24.8558 36.6731 24.7187C36.603 24.5817 36.5062 24.46 36.3883 24.361L32.4733 20.0927L28.5216 24.366C28.4086 24.4674 28.3166 24.5901 28.251 24.7271C28.1854 24.8641 28.1474 25.0127 28.1392 25.1644C28.131 25.316 28.1527 25.4678 28.2032 25.6111C28.2537 25.7543 28.3318 25.8863 28.4333 25.9993C28.5347 26.1124 28.6575 26.2043 28.7944 26.2699C28.9314 26.3356 29.08 26.3736 29.2317 26.3818C29.3833 26.39 29.5351 26.3682 29.6784 26.3177C29.8217 26.2673 29.9536 26.1891 30.0666 26.0876L26.955 30.0226C26.8428 30.1293 26.7534 30.2576 26.6919 30.3996C26.6304 30.5417 26.5982 30.6947 26.5972 30.8494C26.5962 31.0042 26.6264 31.1576 26.686 31.3005C26.7456 31.4433 26.8334 31.5727 26.9442 31.6808C27.0549 31.789 27.1863 31.8737 27.3305 31.9299C27.4747 31.9862 27.6288 32.0127 27.7835 32.0081C27.9382 32.0034 28.0904 31.9676 28.231 31.9028C28.3715 31.8381 28.4976 31.7456 28.6016 31.631L26.1316 34.7976C25.9698 34.9585 25.8595 35.1638 25.8145 35.3875C25.7696 35.6112 25.7921 35.8432 25.8793 36.0541C25.9664 36.265 26.1142 36.4452 26.304 36.572C26.4937 36.6987 26.7168 36.7662 26.945 36.766H38C38.2283 36.7653 38.4513 36.697 38.6408 36.5696C38.8304 36.4422 38.9779 36.2615 39.0647 36.0503C39.1516 35.8392 39.1739 35.607 39.1288 35.3831C39.0838 35.1593 38.9734 34.9538 38.8116 34.7926L36.3966 31.6576C36.6152 31.8671 36.9074 31.9822 37.2101 31.9782C37.5128 31.9741 37.8018 31.8511 38.0147 31.6359C38.2276 31.4206 38.3473 31.1302 38.3479 30.8275C38.3486 30.5247 38.2302 30.2339 38.0183 30.0176L34.86 26.0876Z" stroke="#4285F5" stroke-width="1.5" stroke-linecap="round" stroke-linejoin="round"/>
<path d="M32.4917 36.7559V40.0875" stroke="#4285F5" stroke-width="1.5" stroke-linecap="round" stroke-linejoin="round"/>
<path d="M39.155 5.9209C30.3571 7.56041 22.1937 11.6294 15.5883 17.6675C8.98287 23.7057 4.19914 31.4719 1.77832 40.0876" stroke="#4285F5" stroke-width="1.5" stroke-linecap="round" stroke-linejoin="round"/>
<path d="M39.1549 11.8542C31.9251 13.4019 25.2302 16.826 19.7436 21.7821C14.257 26.7383 10.1722 33.0518 7.8999 40.0876" stroke="#4285F5" stroke-width="1.5" stroke-linecap="round" stroke-linejoin="round" stroke-dasharray="1.5 3"/>
<path d="M24.6669 26.3492C20.3811 30.086 17.0555 34.7977 14.9702 40.0876" stroke="#4285F5" stroke-width="1.5" stroke-linecap="round" stroke-linejoin="round"/>
<path d="M39.155 18.7343C38.0439 19.0154 36.9572 19.3487 35.895 19.7343" stroke="#4285F5" stroke-width="1.5" stroke-linecap="round" stroke-linejoin="round"/>
</g>
</svg>
