<svg width="10" height="12" viewBox="0 0 10 12" fill="none" xmlns="http://www.w3.org/2000/svg">
<path fill-rule="evenodd" clip-rule="evenodd" d="M0.0430613 10.7999C0.118613 10.9644 0.328975 11.0532 0.493382 10.9901C0.532897 10.975 1.51503 10.2922 2.67592 9.47278C3.83679 8.65343 4.79561 7.9833 4.80662 7.98363C4.81764 7.98396 5.73429 8.71071 6.84363 9.59859C7.95298 10.4865 8.89214 11.2273 8.93066 11.2448C9.16227 11.3502 9.45545 11.1492 9.43495 10.899C9.42653 10.7963 5.37539 1.22806 5.29327 1.11697C5.16308 0.94085 4.93399 0.919058 4.76473 1.06669C4.6713 1.1482 0.0268945 10.4852 0.0126435 10.6202C0.00572267 10.6858 0.014509 10.7377 0.0430613 10.7999Z" fill="#0D99FF"/>
</svg>
