<svg width="31" height="31" viewBox="0 0 31 31" fill="none" xmlns="http://www.w3.org/2000/svg">
<path opacity="0.12" d="M9.52628 24.5526C14.7875 27.5901 21.515 25.7875 24.5526 20.5263C27.5901 15.2651 25.7875 8.53757 20.5263 5.5C15.2651 2.46243 8.53757 4.26506 5.5 9.52628C2.46243 14.7875 4.26506 21.515 9.52628 24.5526Z" fill="black"/>
<path fill-rule="evenodd" clip-rule="evenodd" d="M10.1067 19.4455C10.1822 19.61 10.3926 19.6988 10.557 19.6357C10.5966 19.6206 11.5787 18.9378 12.7396 18.1183C13.9004 17.299 14.8592 16.6289 14.8702 16.6292C14.8813 16.6295 15.7979 17.3563 16.9072 18.2442C18.0166 19.1321 18.9558 19.8729 18.9943 19.8904C19.2259 19.9958 19.5191 19.7947 19.4986 19.5446C19.4902 19.4419 15.4391 9.87366 15.3569 9.76252C15.2267 9.5864 14.9976 9.56467 14.8283 9.71229C14.7349 9.7938 10.0905 19.1307 10.0763 19.2657C10.0694 19.3313 10.0781 19.3833 10.1067 19.4455Z" fill="black"/>
</svg>
