<svg width="31" height="31" viewBox="0 0 31 31" fill="none" xmlns="http://www.w3.org/2000/svg">
<g clip-path="url(#clip0_2495_2646)">
<path opacity="0.12" d="M26 15C26 8.92487 21.0751 4 15 4C8.92487 4 4 8.92487 4 15C4 21.0751 8.92487 26 15 26C21.0751 26 26 21.0751 26 15Z" fill="#0D99FF"/>
<path fill-rule="evenodd" clip-rule="evenodd" d="M10.0432 19.7997C10.1187 19.9642 10.3291 20.053 10.4935 19.9899C10.533 19.9748 11.5151 19.292 12.676 18.4726C13.8369 17.6532 14.7957 16.9831 14.8067 16.9834C14.8177 16.9838 15.7344 17.7105 16.8437 18.5984C17.9531 19.4863 18.8922 20.2271 18.9308 20.2446C19.1624 20.35 19.4556 20.149 19.4351 19.8988C19.4266 19.7961 15.3755 10.2279 15.2934 10.1168C15.1632 9.94068 14.9341 9.91889 14.7648 10.0665C14.6714 10.148 10.027 19.485 10.0127 19.62C10.0058 19.6856 10.0146 19.7375 10.0432 19.7997Z" fill="#0D99FF"/>
</g>
<defs>
<clipPath id="clip0_2495_2646">
<rect width="22" height="22" fill="white" transform="translate(4 4)"/>
</clipPath>
</defs>
</svg>
