<svg width="12" height="12" viewBox="0 0 12 12" fill="none" xmlns="http://www.w3.org/2000/svg">
<path fill-rule="evenodd" clip-rule="evenodd" d="M8.79653 0.46117L8.79712 0.910945C10.4499 1.04048 11.5417 2.16672 11.5435 3.89385L11.55 8.94932C11.5524 10.8324 10.3693 11.991 8.47308 11.994L3.84113 12C1.95672 12.0024 0.75889 10.8162 0.75652 8.92773L0.750004 3.93163C0.747634 2.1931 1.80092 1.06987 3.4537 0.918141L3.45311 0.468367C3.45252 0.204499 3.64801 0.00599836 3.90866 0.00599836C4.16932 0.00539866 4.36481 0.2033 4.3654 0.467167L4.36599 0.886957L7.88483 0.882159L7.88424 0.46237C7.88364 0.198502 8.07914 0.000601059 8.33979 1.35929e-06C8.59452 -0.00059834 8.79594 0.197303 8.79653 0.46117ZM1.66285 4.11705L10.6317 4.10506V3.89517C10.6063 2.60581 9.95937 1.92935 8.79827 1.8286L8.79886 2.29037C8.79886 2.54824 8.59804 2.75274 8.34331 2.75274C8.08265 2.75334 7.88657 2.54944 7.88657 2.29157L7.88598 1.80581L4.36714 1.81061L4.36773 2.29577C4.36773 2.55424 4.17283 2.75814 3.91218 2.75814C3.65153 2.75873 3.45544 2.55544 3.45544 2.29697L3.45485 1.8352C2.29968 1.95094 1.66048 2.6298 1.66226 3.93055L1.66285 4.11705ZM8.09407 6.8426V6.84919C8.1 7.12505 8.32511 7.33435 8.5982 7.32835C8.86478 7.32176 9.07745 7.09327 9.07153 6.81741C9.05909 6.55354 8.84523 6.33825 8.57925 6.33885C8.30674 6.34484 8.09348 6.56673 8.09407 6.8426ZM8.58323 9.53502C8.31073 9.52902 8.09095 9.30173 8.09036 9.02587C8.08443 8.75001 8.30303 8.52152 8.57553 8.51493H8.58146C8.85988 8.51493 9.08559 8.74221 9.08559 9.02407C9.08618 9.30593 8.86107 9.53442 8.58323 9.53502ZM5.65319 6.85226C5.66504 7.12812 5.89074 7.34341 6.16325 7.33142C6.42982 7.31883 6.6425 7.09094 6.63065 6.81508C6.62413 6.54521 6.40494 6.33532 6.13837 6.33592C5.86586 6.34791 5.6526 6.5764 5.65319 6.85226ZM6.16572 9.50818C5.89322 9.52017 5.66811 9.30488 5.65567 9.02902C5.65567 8.75316 5.86834 8.52527 6.14084 8.51268C6.40742 8.51208 6.6272 8.72197 6.63312 8.99124C6.64557 9.2677 6.4323 9.49558 6.16572 9.50818ZM3.21265 6.87322C3.2245 7.14908 3.4502 7.36497 3.7227 7.35238C3.98928 7.34038 4.20195 7.1119 4.18951 6.83604C4.18359 6.56617 3.9644 6.35628 3.69723 6.35688C3.42473 6.36887 3.21206 6.59736 3.21265 6.87322ZM3.72504 9.5112C3.45254 9.5238 3.22743 9.3079 3.21499 9.03204C3.2144 8.75618 3.42766 8.52769 3.70016 8.5157C3.96674 8.5151 4.18652 8.72499 4.19244 8.99486C4.20488 9.27072 3.99221 9.49921 3.72504 9.5112Z" fill="black"/>
</svg>
