<svg width="15" height="11" viewBox="0 0 15 11" fill="none" xmlns="http://www.w3.org/2000/svg">
<path fill-rule="evenodd" clip-rule="evenodd" d="M5.72238 0.0485907C6.0633 0.227126 6.21244 0.624423 6.06093 0.950339C6.02042 1.03748 5.40674 1.67781 4.1737 2.91962C3.16875 3.93168 2.3465 4.77067 2.3465 4.78407C2.3465 4.79743 5.07565 4.80838 8.41131 4.80838C13.813 4.80838 14.4891 4.81384 14.5946 4.85836C15.1351 5.08619 15.1351 5.88653 14.5946 6.11437C14.4891 6.15889 13.813 6.16434 8.41131 6.16434C5.07565 6.16434 2.3465 6.17496 2.3465 6.18794C2.3465 6.20089 3.18753 7.0617 4.21546 8.10082L6.08441 9.9901L6.12 10.1678C6.22329 10.6832 5.77095 11.1105 5.26624 10.9744C5.12442 10.9362 4.95025 10.7683 2.62419 8.42783C1.09957 6.89379 0.108121 5.87213 0.0672264 5.79307C-0.0224657 5.6196 -0.0224018 5.3529 0.0673866 5.17966C0.165943 4.9895 5.01495 0.111772 5.16938 0.0474931C5.32249 -0.0163017 5.59954 -0.0157207 5.72238 0.0485907Z" fill="black"/>
</svg>
