<svg width="242" height="98" viewBox="0 0 242 98" fill="none" xmlns="http://www.w3.org/2000/svg">
<path fill-rule="evenodd" clip-rule="evenodd" d="M103.055 0.233525C68.0146 2.25425 33.7495 11.8112 16.0059 24.5118C-1.16411 36.8021 -4.64779 50.9424 6.173 64.4206C18.7136 80.0397 51.3006 92.3224 91.2039 96.4708C137.11 101.243 185.534 94.6408 215.589 79.5112C239.472 67.488 247.842 51.1972 237.884 36.1124C225.693 17.6458 188.16 3.84516 140.741 0.393809C134.779 -0.0402941 109.653 -0.14715 103.055 0.233525ZM144.77 5.41223C188.293 8.91415 223.79 21.9105 234.667 38.3268C239.299 45.3172 239.343 52.9388 234.792 60.0247C217.609 86.7783 140.555 101.463 74.8497 90.5064C29.1594 82.8871 1.04347 65.4062 4.04885 46.4869C7.46427 24.9836 51.5708 7.2574 108.032 4.69572C118.44 4.22345 133.691 4.52112 144.77 5.41223ZM105.899 9.00955C56.8625 11.2039 16.6838 24.808 8.23505 42.0786C6.84898 44.9113 6.6513 45.7819 6.6513 49.0415C6.6513 52.2863 6.85135 53.1764 8.20329 55.9399C16.4231 72.7425 52.2904 85.4355 101.159 88.8353C115.94 89.8638 136.536 89.4946 152.164 87.9204C196.332 83.4715 228.974 70.1179 234.651 54.1748C235.637 51.4056 235.593 46.4435 234.56 43.7898C229.612 31.082 208.92 20.2356 177.715 13.9936C155.217 9.49327 131.646 7.85751 105.899 9.00955ZM155.883 27.6812C156.911 29.1581 156.803 31.5061 155.638 32.9963C153.04 36.3208 149.602 32.5021 151.633 28.5485C152.745 26.3846 154.703 25.9854 155.883 27.6812ZM71.3585 28.3562C75.3432 30.0793 74.5307 35.2074 70.2729 35.2074C67.8018 35.2074 66.5541 33.9089 66.5541 31.3367V29.3747L64.3025 29.7101C58.5633 30.5644 53.8244 33.1848 49.5742 37.8526C45.9772 41.8029 44.1972 45.4823 43.9071 49.5681C43.6488 53.1988 44.2764 55.5592 46.0706 57.7049C49.3111 61.5803 54.8639 61.2975 60.8766 56.9502C62.8742 55.5062 63.4217 55.3097 64.2318 55.7457C65.1941 56.2638 65.1927 56.2762 64.0512 57.7822C62.3442 60.0343 58.5666 62.7686 55.9485 63.6473C54.3089 64.1974 52.5891 64.3591 50.0231 64.205C44.52 63.8739 41.4796 61.9291 38.9971 57.1511C38.067 55.3612 37.8812 54.2888 37.8783 50.7011C37.8755 46.8199 38.0239 46.0943 39.39 43.307C43.2672 35.3973 52.244 29.0121 61.4369 27.6264C65.1007 27.0739 69.0679 27.3659 71.3585 28.3562ZM176.749 36.6834C179.703 37.4323 181.428 39.4053 181.428 42.0347C181.428 47.8947 175.155 52.3807 166.962 52.3807H164.55L164.855 54.6466C165.257 57.6419 166.475 59.2553 168.487 59.4537C171.05 59.7065 173.001 59.1317 175.54 57.3738C176.854 56.4641 178.255 55.72 178.652 55.72C180.929 55.72 177.675 59.6526 173.75 61.6452C169.251 63.9283 164.85 63.624 161.949 60.829C160.066 59.0144 159.471 57.0223 159.468 52.5167C159.462 45.0339 163.243 39.2474 169.577 37.0445C172.449 36.046 173.937 35.9711 176.749 36.6834ZM153.682 37.211C154.564 38.0987 154.427 38.8291 151.643 48.0449C150.209 52.7929 149.036 57.2131 149.036 57.868C149.036 59.5372 150.102 59.3803 152.292 57.3896C154.025 55.8139 155.673 55.2067 155.673 56.1431C155.673 56.9583 152.579 61.1467 151.253 62.1256C150.32 62.8144 149.195 63.114 147.541 63.114C142.907 63.114 142.728 60.6396 146.48 48.4399C149.61 38.2638 149.784 37.8397 151.105 37.1967C152.471 36.5307 153.009 36.534 153.682 37.211ZM88.4071 38.1173C89.131 38.8458 89.5448 38.976 89.924 38.5944C90.2108 38.3058 91.3357 38.0696 92.4241 38.0696H94.4022L90.9773 47.296C89.0935 52.3707 87.4097 57.0933 87.2358 57.7908C86.7731 59.646 87.8174 59.4213 90.4346 57.1034C93.0261 54.8074 94.5563 54.7788 93.3902 57.048C92.4478 58.8817 88.6645 62.3193 86.6613 63.1612C84.0612 64.2546 82.6713 63.1092 82.6713 59.873V58.3794L80.4196 60.6005C76.8649 64.1062 73.8908 64.7622 71.34 62.6022C66.547 58.5435 69.3452 45.3587 75.9812 40.7305C80.7662 37.3937 86.4916 36.1896 88.4071 38.1173ZM109.069 37.4905C109.815 37.9675 110.636 40.2005 110.653 41.7977L110.667 43.0785L111.987 41.6207C115.077 38.2061 118.175 36.7778 119.93 37.9575C121.641 39.1072 121.894 42.9874 120.343 44.283C119.103 45.3187 117.176 44.9714 115.979 43.4959L114.867 42.1244L113.684 43.5555C110.821 47.0174 106.421 56.093 105.166 61.1233C104.869 62.3126 104.672 62.3985 102.237 62.3985C99.9717 62.3985 99.6588 62.2878 99.874 61.5636C100.011 61.1043 101.316 56.9894 102.774 52.4189C105.443 44.0517 105.878 41.8859 104.886 41.8859C104.589 41.8859 103.708 42.6372 102.929 43.5555C101.632 45.084 99.7365 45.8229 99.7365 44.8001C99.7365 44.1976 103.021 40.3117 104.714 38.9111C106.762 37.2167 108.007 36.8107 109.069 37.4905ZM132.62 37.8368C133.014 38.2337 133.483 39.5379 133.661 40.7353L133.986 42.9125L135.354 41.2424C137.133 39.07 139.546 37.5926 141.316 37.5926C143.711 37.5926 145.308 40.3799 144.307 42.8133C143.266 45.3416 140.524 45.5524 138.865 43.2321L138.074 42.1244L136.488 43.9415C134.395 46.3414 131.877 51.2315 129.63 57.2598L127.804 62.1599L125.384 62.304C124.053 62.3837 122.967 62.2763 122.969 62.0655C122.972 61.8551 124.147 58.0336 125.582 53.5733C128.651 44.0278 129.103 41.8859 128.048 41.8859C127.649 41.8859 126.707 42.6582 125.954 43.6018C124.95 44.8631 124.292 45.2738 123.473 45.1522C122.403 44.9929 122.446 44.8807 124.585 42.2423C126.942 39.3362 129.763 37.1156 131.099 37.1156C131.541 37.1156 132.226 37.4399 132.62 37.8368ZM195.228 38.176C195.633 38.7589 195.966 40.0923 195.966 41.1394V43.0427L198.217 40.8498C200.842 38.2929 202.051 37.5926 203.837 37.5926C205.821 37.5926 206.868 38.8419 206.868 41.2095C206.868 45.3573 202.594 46.4068 200.988 42.653C200.864 42.3625 199.908 43.0504 198.865 44.1819C196.777 46.4473 193.447 52.9636 191.444 58.7014L190.154 62.3985H187.845C186.558 62.3985 185.537 62.1781 185.537 61.9009C185.537 61.6271 186.687 57.7092 188.093 53.195C191.315 42.8495 191.526 41.8859 190.574 41.8859C190.175 41.8859 189.182 42.7203 188.367 43.7397C187.313 45.0601 186.624 45.5247 185.975 45.354C185.473 45.2218 185.063 44.9413 185.063 44.731C185.063 44.0746 189.967 38.9111 191.462 37.9923C193.339 36.8398 194.332 36.888 195.228 38.176ZM171.079 39.7741C168.896 40.9161 167.773 42.1669 166.406 44.9762C164.468 48.9584 164.588 49.2285 168.116 48.8306C172.918 48.2887 176.146 45.9503 176.811 42.5318C177.38 39.6085 174.261 38.1083 171.079 39.7741ZM82.7661 40.2983C78.1571 42.5843 73.484 52.2777 75.0384 56.3287C76.8241 60.9817 83.2852 55.7066 86.301 47.1333C88.5664 40.6933 87.2197 38.0897 82.7661 40.2983Z" fill="#00409A"/>
</svg>
